<svg xmlns="http://www.w3.org/2000/svg" width="38" height="37" viewBox="0 0 38 37">
  <g id="Group_43409" data-name="Group 43409" transform="translate(0.39 -0.216)">
    <g id="Rectangle_21361" data-name="Rectangle 21361" transform="translate(-0.39 0.216)" fill="none" stroke="#ababab" stroke-width="1">
      <rect width="38" height="37" rx="4" stroke="none"/>
      <rect x="0.5" y="0.5" width="37" height="36" rx="3.5" fill="none"/>
    </g>
    <g id="Group_43410" data-name="Group 43410" transform="translate(-1005.13 -359.36)">
      <path id="Path_80260" data-name="Path 80260" d="M1014.745,448.874v-.342q0-6.931,0-13.862a6.667,6.667,0,0,1,.04-1.16,2.423,2.423,0,0,1,2.426-1.965q1.963.02,3.927.021,2.065,0,4.13-.021a2.46,2.46,0,0,1,2.471,2.721,3.2,3.2,0,0,0-.014.354q0,6.956,0,13.913v.33c-.157-.086-.274-.148-.39-.213q-2.945-1.683-5.888-3.369a.355.355,0,0,0-.41,0q-3.006,1.728-6.02,3.443Zm5.679-11.079c-.491,0-.937-.009-1.383,0a.777.777,0,0,0-.767.729.786.786,0,0,0,.651.862,2.657,2.657,0,0,0,.453.025c.343,0,.685,0,1.047,0,0,.458-.006.879,0,1.3a.812.812,0,0,0,.735.85.791.791,0,0,0,.882-.794c.011-.444,0-.889,0-1.355h.362c.363,0,.728.017,1.088-.017a.79.79,0,0,0,.718-.835.809.809,0,0,0-.79-.768c-.143-.006-.287,0-.43,0h-.947c0-.479.005-.917,0-1.354a.8.8,0,0,0-.525-.762.812.812,0,0,0-1.092.8C1020.416,436.9,1020.425,437.329,1020.425,437.794Z" transform="translate(0 -59.637)" fill="#1e88e5"/>
      <path id="Path_80261" data-name="Path 80261" d="M1091.807,384.909l-1.067-.608c-.454-.259-.906-.525-1.364-.777a.478.478,0,0,1-.281-.464c.007-2.89-.007-5.78.015-8.669a4.055,4.055,0,0,0-4.188-4.1c-1.926.042-3.853.013-5.779.02-.219,0-.3-.1-.3-.31a2.408,2.408,0,0,1,2.634-2.412,2.984,2.984,0,0,0,.328.019c2.341,0,4.681,0,7.022,0a5.264,5.264,0,0,1,1.2.07,2.386,2.386,0,0,1,1.8,2.323q0,7.338-.015,14.677C1091.817,384.739,1091.812,384.8,1091.807,384.909Z" transform="translate(-59.756)" fill="#1e88e5"/>
    </g>
  </g>
</svg>
