<svg xmlns="http://www.w3.org/2000/svg" width="25.104" height="25.104" viewBox="0 0 25.104 25.104">
  <g id="Group_43374" data-name="Group 43374" transform="translate(-638.847 -451.847)">
    <circle id="Ellipse_8" data-name="Ellipse 8" cx="10.5" cy="10.5" r="10.5" transform="translate(641 454)" fill="#fff"/>
    <path id="Icon_awesome-check-circle" data-name="Icon awesome-check-circle" d="M25.666,13.114A12.552,12.552,0,1,1,13.114.562,12.552,12.552,0,0,1,25.666,13.114Zm-14,6.646,9.313-9.313a.81.81,0,0,0,0-1.145L19.83,8.157a.81.81,0,0,0-1.145,0L11.09,15.752,7.544,12.206a.81.81,0,0,0-1.145,0L5.254,13.351a.81.81,0,0,0,0,1.145l5.264,5.264a.81.81,0,0,0,1.145,0Z" transform="translate(638.284 451.284)" fill="#8dc63f"/>
  </g>
</svg>
