<svg xmlns="http://www.w3.org/2000/svg" width="96.853" height="89.52" viewBox="0 0 96.853 89.52">
  <g id="Group_43372" data-name="Group 43372" transform="translate(-34.026 -33.952)">
    <g id="Background_Complete" data-name="Background Complete" transform="translate(40.126 33.952)">
      <g id="Group_43271" data-name="Group 43271" transform="translate(55.25 8.359)">
        <rect id="Rectangle_21325" data-name="Rectangle 21325" width="31.995" height="35.697" fill="#dbdbdb"/>
        <rect id="Rectangle_21326" data-name="Rectangle 21326" width="27.78" height="31.5" transform="translate(2.108 2.108)" fill="#ebebeb"/>
        <g id="Group_43270" data-name="Group 43270" transform="translate(4.619 4.488)">
          <g id="Group_43265" data-name="Group 43265" transform="translate(0 3.19)">
            <rect id="Rectangle_21327" data-name="Rectangle 21327" width="9.792" height="11.603" fill="#fff"/>
            <path id="Path_80052" data-name="Path 80052" d="M349.446,107.831a.352.352,0,1,1-.352-.352A.352.352,0,0,1,349.446,107.831Z" transform="translate(-344.198 -107.042)" fill="#a6a6a6"/>
            <path id="Path_80053" data-name="Path 80053" d="M336.777,115.582c.99-.076,1.98-.081,2.97-.092.99.011,1.98.015,2.97.092-.99.077-1.98.081-2.97.092C338.757,115.663,337.767,115.658,336.777,115.582Z" transform="translate(-334.914 -113.258)" fill="#ebebeb"/>
            <path id="Path_80054" data-name="Path 80054" d="M336.777,119.675a12.794,12.794,0,0,1,1.615-.092,12.631,12.631,0,0,1,1.615.092,12.712,12.712,0,0,1-1.615.092A12.877,12.877,0,0,1,336.777,119.675Z" transform="translate(-334.914 -116.434)" fill="#ebebeb"/>
            <path id="Path_80055" data-name="Path 80055" d="M336.777,123.767c.688-.072,1.375-.088,2.063-.092s1.375.02,2.063.092a20.563,20.563,0,0,1-2.063.092C338.152,123.856,337.465,123.839,336.777,123.767Z" transform="translate(-334.914 -119.609)" fill="#ebebeb"/>
            <path id="Path_80056" data-name="Path 80056" d="M336.777,127.86c.861-.072,1.721-.088,2.582-.092s1.721.02,2.582.092c-.861.072-1.721.089-2.582.092S337.638,127.932,336.777,127.86Z" transform="translate(-334.914 -122.785)" fill="#ebebeb"/>
            <path id="Path_80057" data-name="Path 80057" d="M336.777,131.953c.748-.072,1.5-.088,2.243-.092s1.5.02,2.243.092c-.747.072-1.5.089-2.243.092S337.525,132.025,336.777,131.953Z" transform="translate(-334.914 -125.961)" fill="#ebebeb"/>
            <path id="Path_80058" data-name="Path 80058" d="M336.777,136.046c.957-.076,1.914-.081,2.871-.092.957.011,1.914.015,2.871.092-.957.077-1.914.081-2.871.092C338.691,136.127,337.734,136.122,336.777,136.046Z" transform="translate(-334.914 -129.137)" fill="#ebebeb"/>
            <path id="Path_80059" data-name="Path 80059" d="M336.777,140.138a16.957,16.957,0,0,1,1.854-.092,16.727,16.727,0,0,1,1.854.092,16.672,16.672,0,0,1-1.854.092A16.9,16.9,0,0,1,336.777,140.138Z" transform="translate(-334.914 -132.312)" fill="#ebebeb"/>
            <path id="Path_80060" data-name="Path 80060" d="M336.777,144.231c.99-.076,1.98-.081,2.97-.092.99.011,1.98.015,2.97.092-.99.077-1.98.081-2.97.092C338.757,144.312,337.767,144.307,336.777,144.231Z" transform="translate(-334.914 -135.488)" fill="#ebebeb"/>
            <path id="Path_80061" data-name="Path 80061" d="M336.777,148.324c.99-.076,1.98-.081,2.97-.092.99.011,1.98.015,2.97.092-.99.077-1.98.081-2.97.092C338.757,148.405,337.767,148.4,336.777,148.324Z" transform="translate(-334.914 -138.664)" fill="#ebebeb"/>
          </g>
          <g id="Group_43268" data-name="Group 43268" transform="translate(11.282 10.424)">
            <rect id="Rectangle_21328" data-name="Rectangle 21328" width="11.587" height="13.73" fill="#fff"/>
            <path id="Path_80062" data-name="Path 80062" d="M382.693,141.063a.352.352,0,1,1-.352-.352A.352.352,0,0,1,382.693,141.063Z" transform="translate(-381.278 -140.063)" fill="#a6a6a6"/>
            <g id="Group_43266" data-name="Group 43266" transform="translate(1.621 3.333)">
              <path id="Path_80063" data-name="Path 80063" d="M386.054,152.786a8.183,8.183,0,0,1,1.285-.092,8.08,8.08,0,0,1,1.285.092,8.05,8.05,0,0,1-1.285.092A8.152,8.152,0,0,1,386.054,152.786Z" transform="translate(-386.054 -152.694)" fill="#ebebeb"/>
              <path id="Path_80064" data-name="Path 80064" d="M386.054,157.407a13.622,13.622,0,0,1,1.664-.092,13.4,13.4,0,0,1,1.664.092,13.487,13.487,0,0,1-1.664.092A13.661,13.661,0,0,1,386.054,157.407Z" transform="translate(-386.054 -156.28)" fill="#ebebeb"/>
              <path id="Path_80065" data-name="Path 80065" d="M386.054,162.027a11.737,11.737,0,0,1,1.541-.092,11.589,11.589,0,0,1,1.541.092,11.513,11.513,0,0,1-1.541.092A11.7,11.7,0,0,1,386.054,162.027Z" transform="translate(-386.054 -159.865)" fill="#ebebeb"/>
              <path id="Path_80066" data-name="Path 80066" d="M386.054,166.648a11.669,11.669,0,0,1,1.541-.092,11.516,11.516,0,0,1,1.541.092,11.582,11.582,0,0,1-1.541.092A11.737,11.737,0,0,1,386.054,166.648Z" transform="translate(-386.054 -163.45)" fill="#ebebeb"/>
              <path id="Path_80067" data-name="Path 80067" d="M386.054,171.268a8.825,8.825,0,0,1,1.339-.092,8.734,8.734,0,0,1,1.339.092,8.763,8.763,0,0,1-1.339.092A8.876,8.876,0,0,1,386.054,171.268Z" transform="translate(-386.054 -167.035)" fill="#ebebeb"/>
              <path id="Path_80068" data-name="Path 80068" d="M386.054,175.888a14.5,14.5,0,0,1,1.714-.092,14.307,14.307,0,0,1,1.714.092,15.991,15.991,0,0,1-3.428,0Z" transform="translate(-386.054 -170.62)" fill="#ebebeb"/>
              <path id="Path_80069" data-name="Path 80069" d="M386.054,180.509a9.837,9.837,0,0,1,1.414-.092,9.712,9.712,0,0,1,1.414.092,9.768,9.768,0,0,1-1.414.092A9.894,9.894,0,0,1,386.054,180.509Z" transform="translate(-386.054 -174.206)" fill="#ebebeb"/>
              <path id="Path_80070" data-name="Path 80070" d="M386.054,185.129a15.466,15.466,0,0,1,1.773-.092,15.26,15.26,0,0,1,1.773.092,15.314,15.314,0,0,1-1.773.092A15.522,15.522,0,0,1,386.054,185.129Z" transform="translate(-386.054 -177.79)" fill="#ebebeb"/>
              <path id="Path_80071" data-name="Path 80071" d="M386.054,189.749a15.467,15.467,0,0,1,1.773-.092,15.264,15.264,0,0,1,1.773.092,15.311,15.311,0,0,1-1.773.092A15.515,15.515,0,0,1,386.054,189.749Z" transform="translate(-386.054 -181.375)" fill="#ebebeb"/>
            </g>
            <g id="Group_43267" data-name="Group 43267" transform="translate(6.685 3.333)">
              <path id="Path_80072" data-name="Path 80072" d="M408.653,152.786a13.989,13.989,0,0,1,1.684-.092,13.815,13.815,0,0,1,1.684.092,13.764,13.764,0,0,1-1.684.092A13.936,13.936,0,0,1,408.653,152.786Z" transform="translate(-408.653 -152.694)" fill="#ebebeb"/>
              <path id="Path_80073" data-name="Path 80073" d="M408.653,157.407a6.07,6.07,0,0,1,1.107-.092,5.972,5.972,0,0,1,1.107.092,6.012,6.012,0,0,1-1.107.092A6.087,6.087,0,0,1,408.653,157.407Z" transform="translate(-408.653 -156.28)" fill="#ebebeb"/>
              <path id="Path_80074" data-name="Path 80074" d="M408.653,162.027a12.388,12.388,0,0,1,1.584-.092,12.232,12.232,0,0,1,1.584.092,12.152,12.152,0,0,1-1.584.092A12.343,12.343,0,0,1,408.653,162.027Z" transform="translate(-408.653 -159.865)" fill="#ebebeb"/>
              <path id="Path_80075" data-name="Path 80075" d="M408.653,166.648a11.667,11.667,0,0,1,1.541-.092,11.513,11.513,0,0,1,1.541.092,11.58,11.58,0,0,1-1.541.092A11.735,11.735,0,0,1,408.653,166.648Z" transform="translate(-408.653 -163.45)" fill="#ebebeb"/>
              <path id="Path_80076" data-name="Path 80076" d="M408.653,171.268a13.9,13.9,0,0,1,1.684-.092,13.766,13.766,0,0,1,1.684.092,13.812,13.812,0,0,1-1.684.092A13.986,13.986,0,0,1,408.653,171.268Z" transform="translate(-408.653 -167.035)" fill="#ebebeb"/>
              <path id="Path_80077" data-name="Path 80077" d="M408.653,175.888a8.877,8.877,0,0,1,1.339-.092,8.761,8.761,0,0,1,1.339.092,9.777,9.777,0,0,1-2.678,0Z" transform="translate(-408.653 -170.62)" fill="#ebebeb"/>
              <path id="Path_80078" data-name="Path 80078" d="M408.653,180.509a12.31,12.31,0,0,1,1.584-.092,12.16,12.16,0,0,1,1.584.092,12.23,12.23,0,0,1-1.584.092A12.382,12.382,0,0,1,408.653,180.509Z" transform="translate(-408.653 -174.206)" fill="#ebebeb"/>
              <path id="Path_80079" data-name="Path 80079" d="M408.653,185.129a7.42,7.42,0,0,1,1.225-.092,7.321,7.321,0,0,1,1.225.092,7.347,7.347,0,0,1-1.225.092A7.446,7.446,0,0,1,408.653,185.129Z" transform="translate(-408.653 -177.79)" fill="#ebebeb"/>
              <path id="Path_80080" data-name="Path 80080" d="M408.653,189.749a6.835,6.835,0,0,1,1.175-.092,6.748,6.748,0,0,1,1.175.092,6.769,6.769,0,0,1-1.175.092A6.856,6.856,0,0,1,408.653,189.749Z" transform="translate(-408.653 -181.375)" fill="#ebebeb"/>
            </g>
          </g>
          <g id="Group_43269" data-name="Group 43269" transform="translate(8.891)">
            <rect id="Rectangle_21329" data-name="Rectangle 21329" width="5.892" height="5.892" fill="#a6a6a6"/>
            <path id="Path_80081" data-name="Path 80081" d="M380.425,92.741a.352.352,0,1,1-.352-.352A.352.352,0,0,1,380.425,92.741Z" transform="translate(-377.127 -92.143)" fill="#ebebeb"/>
          </g>
        </g>
        <rect id="Rectangle_21330" data-name="Rectangle 21330" width="0.795" height="31.534" transform="translate(29.067 2.108)" fill="#c7c7c7"/>
      </g>
      <g id="Group_43274" data-name="Group 43274" transform="translate(0 0)">
        <circle id="Ellipse_5" data-name="Ellipse 5" cx="9.675" cy="9.675" r="9.675" transform="translate(0 15.747) rotate(-54.471)" fill="#ebebeb"/>
        <circle id="Ellipse_6" data-name="Ellipse 6" cx="9.232" cy="9.232" r="9.232" transform="translate(1.014 15.556) rotate(-53.125)" fill="#dbdbdb"/>
        <circle id="Ellipse_7" data-name="Ellipse 7" cx="8.649" cy="8.649" r="8.649" transform="matrix(0.815, -0.58, 0.58, 0.815, 1.877, 11.682)" fill="#fff"/>
        <path id="Path_80082" data-name="Path 80082" d="M104.421,66.8c-3.938,2.386-10.411,6.3-14.029,8.447a8.657,8.657,0,0,1-2.363-3.178l11.965-11.09A8.66,8.66,0,0,1,104.421,66.8Z" transform="translate(-82.03 -54.922)" fill="#ebebeb" opacity="0.5"/>
        <path id="Path_80083" data-name="Path 80083" d="M117.984,96.5a8.575,8.575,0,0,1-.572,2.81l-10.787,5.1a8.606,8.606,0,0,1-1.362-.585C108.521,101.939,114.476,98.514,117.984,96.5Z" transform="translate(-95.402 -82.483)" fill="#ebebeb" opacity="0.5"/>
        <g id="Group_43272" data-name="Group 43272" transform="translate(5.918 5.69)">
          <rect id="Rectangle_21331" data-name="Rectangle 21331" width="0.167" height="1.311" transform="translate(7.937)" fill="#c7c7c7"/>
          <rect id="Rectangle_21332" data-name="Rectangle 21332" width="0.167" height="1.311" transform="translate(3.938 1.116) rotate(-29.997)" fill="#c7c7c7"/>
          <rect id="Rectangle_21333" data-name="Rectangle 21333" width="0.167" height="1.311" transform="translate(1.033 4.083) rotate(-59.997)" fill="#c7c7c7"/>
          <rect id="Rectangle_21334" data-name="Rectangle 21334" width="1.311" height="0.167" transform="translate(0 7.937)" fill="#c7c7c7"/>
          <rect id="Rectangle_21335" data-name="Rectangle 21335" width="1.311" height="0.167" transform="matrix(0.866, -0.5, 0.5, 0.866, 1.033, 11.959)" fill="#c7c7c7"/>
          <rect id="Rectangle_21336" data-name="Rectangle 21336" width="1.311" height="0.167" transform="translate(3.938 14.926) rotate(-60.025)" fill="#c7c7c7"/>
          <rect id="Rectangle_21337" data-name="Rectangle 21337" width="0.167" height="1.311" transform="translate(7.937 14.731)" fill="#c7c7c7"/>
          <rect id="Rectangle_21338" data-name="Rectangle 21338" width="0.167" height="1.311" transform="translate(11.303 13.874) rotate(-29.999)" fill="#c7c7c7"/>
          <rect id="Rectangle_21339" data-name="Rectangle 21339" width="0.167" height="1.311" transform="matrix(0.5, -0.866, 0.866, 0.5, 13.79, 11.448)" fill="#c7c7c7"/>
          <rect id="Rectangle_21340" data-name="Rectangle 21340" width="1.311" height="0.167" transform="translate(14.731 7.937)" fill="#c7c7c7"/>
          <rect id="Rectangle_21341" data-name="Rectangle 21341" width="1.311" height="0.167" transform="translate(13.79 4.594) rotate(-30.017)" fill="#c7c7c7"/>
          <rect id="Rectangle_21342" data-name="Rectangle 21342" width="1.311" height="0.167" transform="translate(11.304 2.168) rotate(-60.03)" fill="#c7c7c7"/>
        </g>
        <g id="Group_43273" data-name="Group 43273" transform="translate(13.273 6.281)">
          <path id="Path_80084" data-name="Path 80084" d="M122.17,61.99,122.455,70l-.82-.01.313-8Z" transform="translate(-121.379 -61.987)" fill="#c7c7c7"/>
          <path id="Path_80085" data-name="Path 80085" d="M126.275,82l-5.39,3.44-.392-.721,5.675-2.915Z" transform="translate(-120.493 -77.365)" fill="#a6a6a6"/>
          <path id="Path_80086" data-name="Path 80086" d="M122.775,94.179a.28.28,0,1,1-.28-.28A.28.28,0,0,1,122.775,94.179Z" transform="translate(-121.829 -86.749)" fill="#c7c7c7"/>
        </g>
      </g>
    </g>
    <g id="Table" transform="translate(34.025 123.249)">
      <path id="Path_80087" data-name="Path 80087" d="M130.8,432.616l-12.1.054-12.1.02-24.195.038-24.195-.037-12.1-.02-12.1-.055,12.1-.055,12.1-.02,24.195-.037,24.195.038,12.1.02Z" transform="translate(-34.025 -432.504)" fill="#263238"/>
    </g>
    <g id="Lines" transform="translate(113.309 53.9)">
      <g id="Group_43283" data-name="Group 43283">
        <g id="Group_43275" data-name="Group 43275" transform="translate(6.619)">
          <path id="Path_80088" data-name="Path 80088" d="M417.434,127.074a18.9,18.9,0,0,1,.382-4.088,16.52,16.52,0,0,1-.08,2.055A16.738,16.738,0,0,1,417.434,127.074Z" transform="translate(-417.427 -122.986)" fill="#263238"/>
        </g>
        <g id="Group_43276" data-name="Group 43276" transform="translate(3.704 0.592)">
          <path id="Path_80089" data-name="Path 80089" d="M406.132,129.36a16.718,16.718,0,0,1-.958-1.819,16.523,16.523,0,0,1-.755-1.913,18.9,18.9,0,0,1,1.713,3.732Z" transform="translate(-404.419 -125.628)" fill="#263238"/>
        </g>
        <g id="Group_43277" data-name="Group 43277" transform="translate(1.139 2.756)">
          <path id="Path_80090" data-name="Path 80090" d="M396.319,137.663a18.882,18.882,0,0,1-3.349-2.375,16.522,16.522,0,0,1,1.739,1.1A16.708,16.708,0,0,1,396.319,137.663Z" transform="translate(-392.97 -135.288)" fill="#263238"/>
        </g>
        <g id="Group_43278" data-name="Group 43278" transform="translate(0 5.906)">
          <path id="Path_80091" data-name="Path 80091" d="M391.973,149.737a16.743,16.743,0,0,1-2.054-.08,16.481,16.481,0,0,1-2.034-.3,18.872,18.872,0,0,1,4.088.382Z" transform="translate(-387.885 -149.347)" fill="#263238"/>
        </g>
        <g id="Group_43279" data-name="Group 43279" transform="translate(8.433 7.79)">
          <path id="Path_80092" data-name="Path 80092" d="M425.523,157.754a16.7,16.7,0,0,1,1.739,1.1,16.519,16.519,0,0,1,1.61,1.279,16.523,16.523,0,0,1-1.739-1.1A16.735,16.735,0,0,1,425.523,157.754Z" transform="translate(-425.523 -157.754)" fill="#263238"/>
        </g>
        <g id="Group_43280" data-name="Group 43280" transform="translate(8.833 6.619)">
          <path id="Path_80093" data-name="Path 80093" d="M427.31,152.535a16.7,16.7,0,0,1,2.054.08,16.518,16.518,0,0,1,2.034.3,16.51,16.51,0,0,1-2.054-.08A16.727,16.727,0,0,1,427.31,152.535Z" transform="translate(-427.31 -152.528)" fill="#263238"/>
        </g>
        <g id="Group_43281" data-name="Group 43281" transform="translate(8.598 3.704)">
          <path id="Path_80094" data-name="Path 80094" d="M426.259,141.233a16.716,16.716,0,0,1,1.819-.958,16.514,16.514,0,0,1,1.913-.755,18.9,18.9,0,0,1-3.732,1.713Z" transform="translate(-426.259 -139.52)" fill="#263238"/>
        </g>
        <g id="Group_43282" data-name="Group 43282" transform="translate(7.79 1.139)">
          <path id="Path_80095" data-name="Path 80095" d="M422.653,131.42a16.71,16.71,0,0,1,1.1-1.739,16.483,16.483,0,0,1,1.279-1.61,16.515,16.515,0,0,1-1.1,1.739A16.74,16.74,0,0,1,422.653,131.42Z" transform="translate(-422.653 -128.071)" fill="#263238"/>
        </g>
      </g>
    </g>
    <g id="Character" transform="translate(37.359 51.211)">
      <g id="Group_43354" data-name="Group 43354" transform="translate(0 0)">
        <g id="Group_43353" data-name="Group 43353">
          <g id="Group_43287" data-name="Group 43287" transform="translate(2.987 21.456)">
            <path id="Path_80096" data-name="Path 80096" d="M91.976,250.912c-.249.315-21.166,1.254-22.163.968a.651.651,0,0,1-.138-.059c-1.231-.576-6.519-4.57-7.363-6.253-.678-1.353,3.313-8.7,4.7-9.962a6.5,6.5,0,0,1,2.642-1.166s4.846-13.98,7.832-16.907c.749-.734,13.721-1.021,16.039.035A12.215,12.215,0,0,1,97,220.929v0C97.063,221.578,92.226,250.592,91.976,250.912Z" transform="translate(-62.235 -214.607)" fill="#37474f"/>
            <path id="Path_80097" data-name="Path 80097" d="M118.405,264.232c-.249.315-21.166,1.254-22.163.968a.653.653,0,0,1-.138-.059c2-5.419,11.427-30.849,11.695-31.012s12.664-.089,15.631.125C123.493,234.9,118.655,263.911,118.405,264.232Z" transform="translate(-88.516 -227.926)" fill="#263238"/>
            <path id="Path_80098" data-name="Path 80098" d="M160.64,210.705a7.414,7.414,0,0,1,.036-3.6c.431-.635,5.406-.321,5.7.22a10,10,0,0,1,.284,3.483c-.15.1-.98.2-1.091.019s-.105-2.531-.193-2.654a15.037,15.037,0,0,0-3.691-.172c-.12.179.172,2.554.032,2.658S160.844,210.9,160.64,210.705Z" transform="translate(-138.432 -206.748)" fill="#37474f"/>
            <g id="Group_43286" data-name="Group 43286" transform="translate(1.188 16.147)">
              <g id="Group_43284" data-name="Group 43284" transform="translate(7.22 0)">
                <rect id="Rectangle_21343" data-name="Rectangle 21343" width="1.696" height="1.951" transform="matrix(0.905, 0.424, -0.424, 0.905, 1.989, 0)" fill="#dbdbdb"/>
                <rect id="Rectangle_21344" data-name="Rectangle 21344" width="2.765" height="2.227" transform="translate(0.945 0.967) rotate(25.113)" fill="#c7c7c7"/>
              </g>
              <path id="Path_80099" data-name="Path 80099" d="M77.815,294.935l-4.326,9.229-5.952-2.79,4.326-9.229a3.3,3.3,0,1,1,5.952,2.79Z" transform="translate(-67.537 -287.473)" fill="#1e88e5"/>
              <path id="Path_80100" data-name="Path 80100" d="M77.815,294.935l-4.326,9.229-5.952-2.79,4.326-9.229a3.3,3.3,0,1,1,5.952,2.79Z" transform="translate(-67.537 -287.473)" opacity="0.1"/>
              <g id="Group_43285" data-name="Group 43285" transform="translate(1.205 3.004)">
                <path id="Path_80101" data-name="Path 80101" d="M102.33,292.592a.256.256,0,1,1-.123-.34A.256.256,0,0,1,102.33,292.592Z" transform="translate(-95.361 -292.228)" fill="#fff"/>
                <path id="Path_80102" data-name="Path 80102" d="M111.157,308.088a.256.256,0,1,1-.123-.341A.256.256,0,0,1,111.157,308.088Z" transform="translate(-102.211 -304.251)" fill="#fff"/>
                <path id="Path_80103" data-name="Path 80103" d="M98.916,303.612a.256.256,0,1,1-.123-.34A.256.256,0,0,1,98.916,303.612Z" transform="translate(-92.712 -300.779)" fill="#fff"/>
                <path id="Path_80104" data-name="Path 80104" d="M95.313,313.991a.256.256,0,1,1-.123-.34A.256.256,0,0,1,95.313,313.991Z" transform="translate(-89.916 -308.832)" fill="#fff"/>
                <path id="Path_80105" data-name="Path 80105" d="M79.773,319.312a.256.256,0,1,1-.123-.341A.256.256,0,0,1,79.773,319.312Z" transform="translate(-77.858 -312.961)" fill="#fff"/>
                <path id="Path_80106" data-name="Path 80106" d="M83.049,309.631a.256.256,0,1,1-.123-.34A.256.256,0,0,1,83.049,309.631Z" transform="translate(-80.4 -305.449)" fill="#fff"/>
                <path id="Path_80107" data-name="Path 80107" d="M87.878,300a.256.256,0,1,1-.123-.341A.256.256,0,0,1,87.878,300Z" transform="translate(-84.147 -297.976)" fill="#fff"/>
                <path id="Path_80108" data-name="Path 80108" d="M95.161,296.141a.256.256,0,1,1-.123-.341A.256.256,0,0,1,95.161,296.141Z" transform="translate(-89.798 -294.981)" fill="#fff"/>
                <path id="Path_80109" data-name="Path 80109" d="M91.385,306.889a.256.256,0,1,1-.123-.341A.256.256,0,0,1,91.385,306.889Z" transform="translate(-86.868 -303.321)" fill="#fff"/>
                <path id="Path_80110" data-name="Path 80110" d="M106.747,300.468a.256.256,0,1,1-.123-.341A.256.256,0,0,1,106.747,300.468Z" transform="translate(-98.788 -298.338)" fill="#fff"/>
                <path id="Path_80111" data-name="Path 80111" d="M103.291,311.105a.256.256,0,1,1-.123-.34A.256.256,0,0,1,103.291,311.105Z" transform="translate(-96.107 -306.593)" fill="#fff"/>
                <path id="Path_80112" data-name="Path 80112" d="M87.428,316.779a.256.256,0,1,1-.123-.341A.256.256,0,0,1,87.428,316.779Z" transform="translate(-83.798 -310.995)" fill="#fff"/>
                <path id="Path_80113" data-name="Path 80113" d="M94.746,330.178a.256.256,0,1,1-.123-.341A.256.256,0,0,1,94.746,330.178Z" transform="translate(-89.476 -321.392)" fill="#fff"/>
                <path id="Path_80114" data-name="Path 80114" d="M90.942,337.89a.256.256,0,1,1-.123-.34A.256.256,0,0,1,90.942,337.89Z" transform="translate(-86.524 -327.376)" fill="#fff"/>
                <path id="Path_80115" data-name="Path 80115" d="M84.133,325.425a.256.256,0,1,1-.123-.341A.256.256,0,0,1,84.133,325.425Z" transform="translate(-81.241 -317.704)" fill="#fff"/>
                <path id="Path_80116" data-name="Path 80116" d="M73.4,335.192a.256.256,0,1,1-.123-.341A.256.256,0,0,1,73.4,335.192Z" transform="translate(-72.915 -325.283)" fill="#fff"/>
                <path id="Path_80117" data-name="Path 80117" d="M91.67,323.278a.256.256,0,1,1-.123-.341A.256.256,0,0,1,91.67,323.278Z" transform="translate(-87.089 -316.038)" fill="#fff"/>
                <path id="Path_80118" data-name="Path 80118" d="M87.859,331.746a.256.256,0,1,1-.123-.341A.256.256,0,0,1,87.859,331.746Z" transform="translate(-84.132 -322.609)" fill="#fff"/>
                <path id="Path_80119" data-name="Path 80119" d="M83.93,340.127a.256.256,0,1,1-.123-.341A.256.256,0,0,1,83.93,340.127Z" transform="translate(-81.084 -329.112)" fill="#fff"/>
                <path id="Path_80120" data-name="Path 80120" d="M87.376,346.474a.256.256,0,1,1-.123-.34A.256.256,0,0,1,87.376,346.474Z" transform="translate(-83.757 -334.037)" fill="#fff"/>
                <path id="Path_80121" data-name="Path 80121" d="M76.971,327.242a.256.256,0,1,1-.123-.34A.256.256,0,0,1,76.971,327.242Z" transform="translate(-75.684 -319.114)" fill="#fff"/>
                <path id="Path_80122" data-name="Path 80122" d="M80.4,333.392a.256.256,0,1,1-.123-.34A.256.256,0,0,1,80.4,333.392Z" transform="translate(-78.343 -323.886)" fill="#fff"/>
                <path id="Path_80123" data-name="Path 80123" d="M94.122,344.9a.256.256,0,1,1-.123-.341A.256.256,0,0,1,94.122,344.9Z" transform="translate(-88.992 -332.818)" fill="#fff"/>
                <path id="Path_80124" data-name="Path 80124" d="M76.822,341.629a.256.256,0,1,1-.123-.34A.256.256,0,0,1,76.822,341.629Z" transform="translate(-75.568 -330.278)" fill="#fff"/>
                <path id="Path_80125" data-name="Path 80125" d="M102.012,328.473a.256.256,0,1,1-.123-.341A.256.256,0,0,1,102.012,328.473Z" transform="translate(-95.115 -320.069)" fill="#fff"/>
                <path id="Path_80126" data-name="Path 80126" d="M98.205,336.6a.256.256,0,1,1-.123-.341A.256.256,0,0,1,98.205,336.6Z" transform="translate(-92.16 -326.372)" fill="#fff"/>
                <path id="Path_80127" data-name="Path 80127" d="M98.942,321.8a.256.256,0,1,1-.123-.341A.256.256,0,0,1,98.942,321.8Z" transform="translate(-92.732 -314.889)" fill="#fff"/>
                <path id="Path_80128" data-name="Path 80128" d="M106.962,319.262a.256.256,0,1,1-.123-.34A.256.256,0,0,1,106.962,319.262Z" transform="translate(-98.955 -312.922)" fill="#fff"/>
              </g>
            </g>
            <path id="Path_80129" data-name="Path 80129" d="M64.411,313.956c.5,2.466,5.98,5.122,6.352,5.112s4.009-9.007,4.009-9.007-4.43-1.456-6.43-4.042C68.341,306.018,64.254,313.186,64.411,313.956Z" transform="translate(-63.92 -283.776)" fill="#455a64"/>
          </g>
          <g id="Group_43293" data-name="Group 43293" transform="translate(12.294 56.97)">
            <g id="Group_43290" data-name="Group 43290" transform="translate(8.182)">
              <g id="Group_43289" data-name="Group 43289">
                <path id="Path_80130" data-name="Path 80130" d="M165.567,380.343H144.374c-1.291-4.924-2.476-9.278-3.232-12.025-.474-1.728-.779-2.824-.837-3.029-.008-.025-.01-.036-.01-.036h22.038s.251,1.152.672,3.09c.266,1.248.606,2.826.995,4.63.033.157.069.317.1.482C164.545,375.52,165.044,377.862,165.567,380.343Z" transform="translate(-140.294 -365.253)" fill="#455a64"/>
                <g id="Group_43288" data-name="Group 43288" transform="translate(3.631 2.651)">
                  <path id="Path_80131" data-name="Path 80131" d="M160.16,389.522h-.4q-1.625-5.993-3.174-12.007l-.086-.337a.076.076,0,0,1,.145-.043c.038.127.076.254.112.381C157.928,381.506,159.051,385.512,160.16,389.522Z" transform="translate(-156.5 -377.083)" fill="#263238"/>
                </g>
              </g>
            </g>
            <g id="Group_43292" data-name="Group 43292" transform="translate(0 0.036)">
              <path id="Path_80132" data-name="Path 80132" d="M132.278,365.412a20.821,20.821,0,0,1-.753,3.09c-.246.8-.543,1.669-.88,2.562-.071.2-.152.4-.231.6-1.068,2.722-2.474,5.5-3.907,6.812,0,0,0,0-.005,0h0a3.6,3.6,0,0,1-.553.434l-1.228.758a.044.044,0,0,1-.005.018v0c-.013.073-.056.34-.127.771H103.915a28.612,28.612,0,0,1,1.535-12.081,25.006,25.006,0,0,1,1.2-2.973Z" transform="translate(-103.778 -365.412)" fill="#455a64"/>
              <g id="Group_43291" data-name="Group 43291" transform="translate(2.062 0.448)">
                <path id="Path_80133" data-name="Path 80133" d="M193.055,417.873a39.273,39.273,0,0,1-4.011,1.918c-.365.157-.731.312-1.1.462h0c-.023.01-.046.02-.069.028-.319.132-.639.259-.961.383s-.624.246-.941.363h-.7c.482-.243.987-.449,1.477-.667q1.024-.457,2.05-.906.468-.2.934-.411l.01,0c1.068-.474,2.134-.949,3.232-1.35C193.08,417.649,193.151,417.814,193.055,417.873Z" transform="translate(-169.073 -406.42)" fill="#263238"/>
                <path id="Path_80134" data-name="Path 80134" d="M196.277,429.1c0,.162-.013.429-.043.758H196c.071-.309.137-.563.2-.746a.074.074,0,0,1,.008-.02.033.033,0,0,1,.061-.008h0v0A.014.014,0,0,1,196.277,429.1Z" transform="translate(-177.402 -415.257)" fill="#263238"/>
                <path id="Path_80135" data-name="Path 80135" d="M115.793,370.806c-.279.558-.533,1.126-.769,1.707a22.973,22.973,0,0,0-1.56,11.081c.038.327.084.652.134.977h-.365a22.925,22.925,0,0,1-.246-2.856,21.793,21.793,0,0,1,1.806-9.207c.264-.6.558-1.195.878-1.771C115.714,370.659,115.833,370.727,115.793,370.806Z" transform="translate(-112.981 -369.965)" fill="#263238"/>
                <path id="Path_80136" data-name="Path 80136" d="M194.9,375.492c.02-.8.076-1.592.116-2.387.093-1.878.166-3.766.34-5.638a.058.058,0,0,1,.116,0c.024,1.453-.032,2.909-.062,4.362-.015.727-.036,1.454-.056,2.181a20.626,20.626,0,0,0-.014,2.083c.039.524.154,1.541.838,1.6.643.059,1.154-.635,1.315-1.145a19.922,19.922,0,0,0,.685-4.034c.078-.8.17-4.038.127-4.844,0-.052.078-.05.08,0,.045.82.157,1.636.185,2.46s.03,1.64-.023,2.457c-.051.784-.117,1.572-.235,2.349a8.457,8.457,0,0,1-.505,2.078,1.838,1.838,0,0,1-1.262,1.178,1.3,1.3,0,0,1-.229.023c-.007.168-.03.338-.042.5-.019.263-.051.525-.087.786a5.914,5.914,0,0,1-.161.761,2.822,2.822,0,0,1-.267.728.041.041,0,0,1-.074-.022,3.56,3.56,0,0,1,.063-.75c.035-.255.071-.514.123-.767s.1-.5.149-.747c.034-.167.058-.339.089-.508a1.222,1.222,0,0,1-.912-.717A4.449,4.449,0,0,1,194.9,375.492Z" transform="translate(-176.541 -367.412)" fill="#263238"/>
              </g>
            </g>
          </g>
          <g id="Group_43352" data-name="Group 43352">
            <g id="Group_43319" data-name="Group 43319" transform="translate(31.451 8.803)">
              <path id="Path_80137" data-name="Path 80137" d="M191.273,231.367c2.674,3.349,13.155,15.239,18.98,16.343,3.923.744,16.526-5.663,19.288-7.984,1.13-.95-5.181-10.353-6.713-9.975-1.667.411-10.738,6.439-11.916,6.371s-10.469-5.291-16.106-7.609C191.429,227.123,189.769,229.482,191.273,231.367Z" transform="translate(-190.394 -210.659)" fill="#ad6359"/>
              <g id="Group_43314" data-name="Group 43314" transform="translate(28.528)">
                <g id="Group_43295" data-name="Group 43295" transform="translate(0 11.396)">
                  <path id="Path_80138" data-name="Path 80138" d="M323.765,221.047c2.424-.934,9.775-6.09,11-7.428s4.455-5.444,3.525-6.483-1.973.087-1.973.087,1.225-2.117.06-2.91c-.93-.633-2.481.874-2.481.874s1.22-2.391-.036-3.03c-1.145-.582-2.407,1.466-2.407,1.466s.819-2.1-.392-2.452c-1.456-.419-2.875,3.221-4.333,4.6-.331.313-10.117,5.113-10.117,5.113Z" transform="translate(-316.607 -201.137)" fill="#ad6359"/>
                  <g id="Group_43294" data-name="Group 43294" transform="translate(10.519 2.302)">
                    <path id="Path_80139" data-name="Path 80139" d="M367.825,211.488c-1.341,2.619-1.971,3.663-4.25,5.339-.045.033-.006.106.044.076,2.381-1.438,3.219-2.623,4.339-5.371C368.011,211.4,367.887,211.366,367.825,211.488Z" transform="translate(-363.555 -211.412)" fill="#263238"/>
                    <path id="Path_80140" data-name="Path 80140" d="M377.626,218.914a15.01,15.01,0,0,1-4.609,5.628c-.032.028.011.084.046.06,2.373-1.708,3.681-2.81,4.66-5.665C377.767,218.807,377.687,218.791,377.626,218.914Z" transform="translate(-370.888 -217.168)" fill="#263238"/>
                    <path id="Path_80141" data-name="Path 80141" d="M386.845,228.388a13.591,13.591,0,0,1-4.945,5.329.053.053,0,0,0,.053.093,9.646,9.646,0,0,0,4.963-5.369C386.986,228.274,386.938,228.231,386.845,228.388Z" transform="translate(-377.77 -224.509)" fill="#263238"/>
                  </g>
                </g>
                <g id="Group_43312" data-name="Group 43312" transform="translate(3.522)">
                  <g id="Group_43296" data-name="Group 43296">
                    <path id="Path_80142" data-name="Path 80142" d="M358.645,175.588c-6.432,1.878-12.763,3.756-18.933,5.635-3.69-8.292-4.235-16.583-6.761-24.874,6.441-1.879,12.78-3.758,18.958-5.637C355.588,159,356.125,167.3,358.645,175.588Z" transform="translate(-332.811 -150.614)" fill="#fff"/>
                    <path id="Path_80143" data-name="Path 80143" d="M358.16,175.249q-4.809,1.427-9.532,2.855-4.739,1.423-9.371,2.847l-.063.019-.03-.067c-3.707-8.287-4.27-16.575-6.8-24.863l-.033-.107.107-.031c6.44-1.868,12.779-3.737,18.957-5.605l.073-.022.034.076a63.377,63.377,0,0,1,3.787,12.467C356.174,166.961,356.919,171.105,358.16,175.249Zm0,0c-1.279-4.148-2.062-8.3-2.991-12.445a63.671,63.671,0,0,0-3.818-12.41l.106.054c-6.178,1.889-12.518,3.779-18.959,5.668l.074-.138c2.518,8.3,3.046,16.591,6.718,24.886l-.093-.047q4.627-1.394,9.365-2.788Q353.317,176.639,358.16,175.249Z" transform="translate(-332.326 -150.275)" fill="#263238"/>
                  </g>
                  <g id="Group_43297" data-name="Group 43297" transform="translate(3.184 6.226)">
                    <path id="Path_80144" data-name="Path 80144" d="M346.537,181.195q5.454-1.566,10.838-3.133.094.319.185.639-5.4,1.566-10.867,3.133Q346.616,181.514,346.537,181.195Z" transform="translate(-346.537 -178.062)" fill="#dbdbdb"/>
                  </g>
                  <g id="Group_43298" data-name="Group 43298" transform="translate(3.57 7.838)">
                    <path id="Path_80145" data-name="Path 80145" d="M348.26,188.39q5.48-1.566,10.906-3.133.086.32.169.639-5.436,1.566-10.928,3.133Q348.334,188.709,348.26,188.39Z" transform="translate(-348.26 -185.257)" fill="#dbdbdb"/>
                  </g>
                  <g id="Group_43299" data-name="Group 43299" transform="translate(3.933 9.45)">
                    <path id="Path_80146" data-name="Path 80146" d="M349.881,195.586q5.5-1.566,10.958-3.133.079.319.156.639-5.466,1.566-10.974,3.133Q349.951,195.905,349.881,195.586Z" transform="translate(-349.881 -192.453)" fill="#dbdbdb"/>
                  </g>
                  <g id="Group_43300" data-name="Group 43300" transform="translate(4.282 9.605)">
                    <path id="Path_80147" data-name="Path 80147" d="M351.438,197.734q8.07-2.3,16.083-4.59.078.32.154.639-8.013,2.3-16.1,4.59Q351.506,198.054,351.438,197.734Z" transform="translate(-351.438 -193.144)" fill="#dbdbdb"/>
                  </g>
                  <g id="Group_43301" data-name="Group 43301" transform="translate(4.625 11.217)">
                    <path id="Path_80148" data-name="Path 80148" d="M352.969,204.93q8.072-2.3,16.121-4.59.073.319.145.639-8.044,2.3-16.13,4.59Z" transform="translate(-352.969 -200.34)" fill="#dbdbdb"/>
                  </g>
                  <g id="Group_43302" data-name="Group 43302" transform="translate(4.97 12.829)">
                    <path id="Path_80149" data-name="Path 80149" d="M354.51,212.125q8.063-2.3,16.137-4.59.07.32.139.639-8.065,2.3-16.136,4.59Q354.579,212.445,354.51,212.125Z" transform="translate(-354.51 -207.535)" fill="#dbdbdb"/>
                  </g>
                  <g id="Group_43303" data-name="Group 43303" transform="translate(5.326 14.442)">
                    <path id="Path_80150" data-name="Path 80150" d="M356.1,219.321q8.041-2.3,16.128-4.59.068.319.136.639-8.072,2.3-16.118,4.59Q356.171,219.64,356.1,219.321Z" transform="translate(-356.099 -214.731)" fill="#dbdbdb"/>
                  </g>
                  <g id="Group_43304" data-name="Group 43304" transform="translate(5.702 16.054)">
                    <path id="Path_80151" data-name="Path 80151" d="M357.774,226.516q8.008-2.3,16.1-4.59l.136.639q-8.068,2.295-16.076,4.59Q357.851,226.836,357.774,226.516Z" transform="translate(-357.774 -221.926)" fill="#dbdbdb"/>
                  </g>
                  <g id="Group_43305" data-name="Group 43305" transform="translate(6.104 17.666)">
                    <path id="Path_80152" data-name="Path 80152" d="M359.571,233.712q7.963-2.3,16.039-4.59.07.319.14.639-8.052,2.3-16.011,4.59Q359.654,234.032,359.571,233.712Z" transform="translate(-359.571 -229.122)" fill="#dbdbdb"/>
                  </g>
                  <g id="Group_43306" data-name="Group 43306" transform="translate(6.543 19.278)">
                    <path id="Path_80153" data-name="Path 80153" d="M361.528,240.908q7.906-2.295,15.959-4.59.073.319.147.639-8.025,2.3-15.921,4.59Q361.619,241.227,361.528,240.908Z" transform="translate(-361.528 -236.318)" fill="#dbdbdb"/>
                  </g>
                  <g id="Group_43307" data-name="Group 43307" transform="translate(7.026 20.89)">
                    <path id="Path_80154" data-name="Path 80154" d="M363.683,248.1q7.837-2.3,15.855-4.59.078.319.158.639-7.985,2.3-15.808,4.59Q363.784,248.422,363.683,248.1Z" transform="translate(-363.683 -243.513)" fill="#dbdbdb"/>
                  </g>
                  <g id="Group_43308" data-name="Group 43308" transform="translate(7.561 22.502)">
                    <path id="Path_80155" data-name="Path 80155" d="M366.073,255.3q7.756-2.295,15.728-4.59.084.319.171.639-7.933,2.3-15.67,4.59Q366.185,255.618,366.073,255.3Z" transform="translate(-366.073 -250.709)" fill="#dbdbdb"/>
                  </g>
                  <g id="Group_43311" data-name="Group 43311" transform="translate(12.778 3.217)">
                    <g id="Group_43309" data-name="Group 43309" transform="translate(2.171 1.111)">
                      <path id="Path_80156" data-name="Path 80156" d="M399.968,174.814c-.239-1.741-.531-3.482-.924-5.224,1.224,1.248,2.4,2.5,3.536,3.745l-.335.307q-1.2-1.318-2.448-2.636c.244,1.242.443,2.485.615,3.728Z" transform="translate(-399.044 -169.59)" fill="#1e88e5"/>
                      <path id="Path_80157" data-name="Path 80157" d="M400.838,181.445l-.261-.356q1.2-.893,2.371-1.785l.27.356Q402.04,180.552,400.838,181.445Z" transform="translate(-400.234 -177.127)" fill="#1e88e5"/>
                    </g>
                    <path id="Path_80158" data-name="Path 80158" d="M391.43,165.059a4.745,4.745,0,0,0-.97.965,4.214,4.214,0,0,0-.806,2.566,3.154,3.154,0,0,0,.287,1.292,2.872,2.872,0,0,0,1.978,1.55,3.511,3.511,0,0,0,2.539-.645,3.9,3.9,0,0,0,1.681-2.062,2.962,2.962,0,0,0-.328-2.554,3.1,3.1,0,0,0-1.017-.9,3.231,3.231,0,0,0-1.3-.418,2.866,2.866,0,0,0-1.338.184,3.985,3.985,0,0,0-1.154.73,4.677,4.677,0,0,1,.506-.474,3.579,3.579,0,0,1,.594-.368,2.976,2.976,0,0,1,1.392-.3,3.54,3.54,0,0,1,2.608,1.337,3.043,3.043,0,0,1,.561,1.393,3.417,3.417,0,0,1-.113,1.484,4.335,4.335,0,0,1-1.857,2.313,4.958,4.958,0,0,1-1.371.625,3.246,3.246,0,0,1-1.5.064,2.957,2.957,0,0,1-1.317-.649,3.357,3.357,0,0,1-.879-1.16,3.928,3.928,0,0,1,.016-2.872A4.176,4.176,0,0,1,391.43,165.059Z" transform="translate(-389.355 -164.631)" fill="#1e88e5"/>
                    <g id="Group_43310" data-name="Group 43310" transform="translate(3.691 0.789)">
                      <path id="Path_80159" data-name="Path 80159" d="M406.864,169.468q-.388-.527-.788-1.054l.352-.26q.4.527.794,1.054Z" transform="translate(-406.021 -168.153)" fill="#1e88e5"/>
                      <path id="Path_80160" data-name="Path 80160" d="M406.1,169.726l-.267-.367q.506-.363,1.007-.726l.273.367Q406.608,169.363,406.1,169.726Z" transform="translate(-405.831 -168.525)" fill="#1e88e5"/>
                    </g>
                  </g>
                </g>
                <g id="Group_43313" data-name="Group 43313" transform="translate(0 12.52)">
                  <path id="Path_80161" data-name="Path 80161" d="M316.607,214.772s2.381-2.438,3.454-3.652,3.629-5.059,5.018-4.967c1.559.1.434,4.155-1.463,6.334,0,0,2.52,4.019.8,6.2-.373.472-3.089,1.963-3.765,1.826Z" transform="translate(-316.607 -206.153)" fill="#ad6359"/>
                  <path id="Path_80162" data-name="Path 80162" d="M347.063,234.655c1.036,1.53,1.758,3.857,1.016,5.543a.042.042,0,0,0,.074.04c1.042-1.7.233-4.4-.777-5.712C347.181,234.275,346.795,234.259,347.063,234.655Z" transform="translate(-340.168 -228.029)" fill="#263238"/>
                </g>
              </g>
              <g id="Group_43318" data-name="Group 43318" transform="translate(0 17.274)">
                <path id="Path_80163" data-name="Path 80163" d="M217.808,231.24l7.158,10.166A3.166,3.166,0,0,1,223,244.437c-2.134.935-10.967,4.121-14.463,2.94s-13.476-9.776-17.781-15.495,2.059-4.579,3.269-4.036,15.441,7.252,15.949,7.24,3.816-2.522,5.373-3.3A3.847,3.847,0,0,1,217.808,231.24Z" transform="translate(-189.28 -227.375)" fill="#1e88e5"/>
                <path id="Path_80164" data-name="Path 80164" d="M216.347,259.428a11.251,11.251,0,0,1-5.1.079c-3.5-1.184-13.478-9.779-17.783-15.5-.272-.362-.5-.7-.693-1Z" transform="translate(-191.991 -239.504)" opacity="0.1"/>
                <g id="Group_43316" data-name="Group 43316" transform="translate(26.165 5.739)">
                  <g id="Group_43315" data-name="Group 43315">
                    <path id="Path_80165" data-name="Path 80165" d="M312.792,263.38c-.656-.8-1.2-1.7-1.774-2.559s-1.122-1.7-1.674-2.553c-1.115-1.724-2.28-3.436-3.279-5.224a.037.037,0,0,1,.063-.04c1.291,1.63,2.418,3.39,3.552,5.121q.853,1.3,1.671,2.626a27.3,27.3,0,0,1,1.512,2.6C312.883,263.39,312.819,263.413,312.792,263.38Z" transform="translate(-306.059 -252.987)" fill="#263238"/>
                  </g>
                </g>
                <g id="Group_43317" data-name="Group 43317" transform="translate(21.884 5.058)" opacity="0.1">
                  <path id="Path_80166" data-name="Path 80166" d="M303.352,263.129c-.26.087-.531.177-.809.267a6.049,6.049,0,0,1-.061-.894c0-.567.045-1.116.038-1.66a8.037,8.037,0,0,0-.157-1.609,5.571,5.571,0,0,0-.54-1.488c-.06-.117-.13-.231-.195-.336s-.139-.206-.213-.309c-.159-.2-.325-.414-.5-.621l-1.031-1.252c-.35-.421-.695-.845-1.035-1.277s-.67-.881-.979-1.349a9.672,9.672,0,0,1-.822-1.515,5.413,5.413,0,0,1-.2-.591c.289-.19.574-.374.842-.544a6.736,6.736,0,0,0,.307.708,13.522,13.522,0,0,0,.818,1.313c.6.874,1.232,1.754,1.866,2.644.316.446.641.887.937,1.36.148.235.3.473.428.73.065.13.13.258.188.4s.1.273.141.412a18.7,18.7,0,0,1,.509,3.3A13.129,13.129,0,0,0,303.352,263.129Z" transform="translate(-294.633 -249.95)"/>
                  <path id="Path_80167" data-name="Path 80167" d="M292.846,269.894c-.217.063-.435.123-.656.181a10.444,10.444,0,0,1-.3-2.745l-.011-1.4c0-.231-.009-.459-.018-.686a4.286,4.286,0,0,0-.065-.654.747.747,0,0,0-.038-.143l-.056-.152-.067-.148c-.025-.049-.054-.1-.078-.146a2.968,2.968,0,0,0-.4-.535,4.993,4.993,0,0,0-1.087-.836c-.2-.121-.406-.226-.614-.334l-.63-.32a3.931,3.931,0,0,1-1.2-.865,2.135,2.135,0,0,1-.233-.325c-.034-.058-.063-.121-.092-.181l-.069-.179a4.467,4.467,0,0,1-.181-.726,7.289,7.289,0,0,1-.085-1.443c0-.141.013-.282.025-.423.143-.092.3-.19.455-.3,0,.24.007.477.02.715a9.385,9.385,0,0,0,.152,1.342,4.607,4.607,0,0,0,.175.627l.058.148c.022.043.038.087.063.132a2.057,2.057,0,0,0,.159.253,4.854,4.854,0,0,0,.95.91c.365.28.762.533,1.154.791a9.31,9.31,0,0,1,1.154.829,3.776,3.776,0,0,1,.509.527,3.383,3.383,0,0,1,.213.307l.092.164a1.5,1.5,0,0,1,.078.186,3.828,3.828,0,0,1,.164.726c.038.237.058.475.078.71.038.471.061.937.092,1.4s.065.923.11,1.376A9.046,9.046,0,0,0,292.846,269.894Z" transform="translate(-286.954 -255.839)"/>
                </g>
              </g>
            </g>
            <g id="Group_43322" data-name="Group 43322" transform="translate(12.731 24.958)">
              <g id="Group_43320" data-name="Group 43320">
                <path id="Path_80168" data-name="Path 80168" d="M105.893,258.871c.022.029,30.6-1.4,30.8-1.588a8.875,8.875,0,0,0,.02-4.245c-1.405-7.25-5.615-22.054-9.328-28.319-.927-1.564-5.107-3.873-8.141-.911-6.151,6-10.98,21.287-12.882,29.677C105.429,257.587,105.766,258.7,105.893,258.871Z" transform="translate(-105.728 -222.377)" fill="#1e88e5"/>
              </g>
              <g id="Group_43321" data-name="Group 43321" transform="translate(0.688 22.583)" opacity="0.1">
                <path id="Path_80169" data-name="Path 80169" d="M138.957,350.077c-.092,0-.184.007-.273.013a21.712,21.712,0,0,0-2.586.408c-1.759.358-3.549.762-5.353,1.163-.9.2-1.806.41-2.736.562-.466.074-.934.148-1.421.184-.246.016-.488.034-.753.029s-.488-.025-.733-.054A31.567,31.567,0,0,1,119.622,351a19.12,19.12,0,0,0-5.254-.865c-.4,0-.838.034-1.275.074s-.874.105-1.315.17c-.881.141-1.77.318-2.657.511-.108.022-.213.047-.32.072.108-.471.226-.963.352-1.472a22.146,22.146,0,0,1,2.344-.634q.7-.151,1.42-.242c.242-.029.484-.054.728-.067a5.738,5.738,0,0,1,.762-.007,8.291,8.291,0,0,1,2.863.721c.883.367,1.707.8,2.559,1.154a13.46,13.46,0,0,0,2.612.815,9.459,9.459,0,0,0,2.677.141c.217-.016.444-.049.652-.078s.41-.083.621-.132c.426-.114.86-.233,1.293-.363l2.637-.782c.883-.267,1.774-.526,2.673-.771s1.813-.461,2.747-.634a16.163,16.163,0,0,1,2.839-.282C138.718,348.944,138.843,349.528,138.957,350.077Z" transform="translate(-108.8 -342.692)"/>
                <path id="Path_80170" data-name="Path 80170" d="M141.147,324.871a15.451,15.451,0,0,0-1.9-.542,7.466,7.466,0,0,0-1.093-.143l-.267-.007c-.083.007-.164,0-.246.011a4.016,4.016,0,0,0-.5.081,8.248,8.248,0,0,0-2.043.881c-.679.385-1.335.833-1.994,1.279a15.932,15.932,0,0,1-2.055,1.25,6.677,6.677,0,0,1-1.154.444,5.716,5.716,0,0,1-.618.13l-.318.034a2.5,2.5,0,0,1-.343,0,6.348,6.348,0,0,1-1.239-.222c-.394-.1-.777-.222-1.156-.347-.76-.251-1.5-.522-2.243-.78s-1.481-.509-2.216-.737a14.885,14.885,0,0,0-2.187-.538,4.1,4.1,0,0,0-1.046-.022,7.641,7.641,0,0,0-1.087.2,17.982,17.982,0,0,0-2.182.735q-.961.39-1.913.833c.069-.258.141-.518.215-.782q.669-.41,1.364-.775a15.692,15.692,0,0,1,2.234-.972,8.491,8.491,0,0,1,1.223-.307,4.89,4.89,0,0,1,1.315-.049,17.043,17.043,0,0,1,4.676,1.36l2.187.9c.361.15.724.291,1.082.428a7.52,7.52,0,0,0,1.06.329,1.929,1.929,0,0,0,.251.036l.273.011.276-.007c.094-.007.186-.018.278-.027a5.033,5.033,0,0,0,1.1-.273,8.625,8.625,0,0,0,2.023-1.143c.316-.231.616-.486.923-.735l.914-.773a6.6,6.6,0,0,1,2.14-1.3,3.389,3.389,0,0,1,.659-.148c.114-.016.231-.018.345-.025l.325.009a7.383,7.383,0,0,1,1.25.2,10.361,10.361,0,0,1,1.421.444Z" transform="translate(-112.323 -323.17)"/>
              </g>
            </g>
            <g id="Group_43335" data-name="Group 43335">
              <g id="Group_43325" data-name="Group 43325" transform="translate(6.318 26.311)">
                <g id="Group_43324" data-name="Group 43324">
                  <g id="Group_43323" data-name="Group 43323">
                    <path id="Path_80171" data-name="Path 80171" d="M93.82,229.216c-9.982,4.232-17.732,7.916-16.607,11.752.442,1.506,3.047,5.569,6.4,5.563,2.63,0,7.32-4.221,12.662-11.6C99.031,231.113,100.122,226.544,93.82,229.216Z" transform="translate(-77.105 -228.416)" fill="#1e88e5"/>
                  </g>
                </g>
                <path id="Path_80172" data-name="Path 80172" d="M129.387,260.263c-.426.353-.85.713-1.265,1.08.088-.1.179-.2.267-.309.714-.847,1.42-1.7,2.126-2.553.015-.018-.014-.04-.03-.024-1.344,1.429-2.7,2.846-4.049,4.27s-4.907,5.035-5.769,5.744c-.018.015,0,.044.023.03.779-.609,2.969-2.442,3.667-3.125q1.583-1.55,3.044-3.2a25.265,25.265,0,0,0,2.034-1.867C129.459,260.284,129.415,260.24,129.387,260.263Z" transform="translate(-110.901 -251.722)" fill="#263238"/>
              </g>
              <g id="Group_43334" data-name="Group 43334">
                <g id="Group_43330" data-name="Group 43330">
                  <path id="Path_80173" data-name="Path 80173" d="M64.9,208.027c-4.365-1.79-7.193-15.029-8.264-23.94-.2-1.7,13.2-3.331,13.214-1.5C69.905,193,69.677,209.987,64.9,208.027Z" transform="translate(-54.9 -165.918)" fill="#ad6359"/>
                  <g id="Group_43329" data-name="Group 43329">
                    <path id="Path_80174" data-name="Path 80174" d="M49.114,136.94c.08,2.843,2.515,9.961,3.636,11.122s9.628-2.9,10.1-4.489.873-10.892-1-13.105S49.032,133.995,49.114,136.94Z" transform="translate(-49.067 -125.717)" fill="#ad6359"/>
                    <g id="Group_43327" data-name="Group 43327">
                      <path id="Path_80175" data-name="Path 80175" d="M63.891,119.718c-.743,1.311-1.862-.316-1.862-.316s1.047,2.729-.242,3.784c-1.245,1.013-2.528-1-2.622-1.142.054.145.951,2.678-.454,3.6-1.46.962-2.4-1.279-2.461-1.424.008.153.082,2.175-1.145,2.637-2.109.792-2.44-4.374-3.859-5.52,0,0-2.216,1.029-2.293,1.079,0,0-.417-3.755,1.236-5.582a1.573,1.573,0,0,1,1.941-.341,2.467,2.467,0,0,1,.774-2.332c.557-.391,1.678.152,1.678.152a1.971,1.971,0,0,1,.811-1.886,1.9,1.9,0,0,1,1.8.125s.377-1.3,1.36-1.545C60.533,110.518,65.48,116.91,63.891,119.718Z" transform="translate(-48.905 -110.984)" fill="#ad6359"/>
                      <g id="Group_43326" data-name="Group 43326" transform="translate(3.312 1.608)">
                        <path id="Path_80176" data-name="Path 80176" d="M86.641,118.2a.021.021,0,0,1,.028-.032,14.021,14.021,0,0,1,4.705,6.887c.024.087-.106.164-.151.073A28.714,28.714,0,0,0,86.641,118.2Z" transform="translate(-81.494 -118.162)" fill="#263238"/>
                        <path id="Path_80177" data-name="Path 80177" d="M74.162,125.519c-.021-.023.017-.059.043-.037a13.132,13.132,0,0,1,4.666,7.832c.017.108-.077.222-.106.1A23.633,23.633,0,0,0,74.162,125.519Z" transform="translate(-71.81 -123.836)" fill="#263238"/>
                        <path id="Path_80178" data-name="Path 80178" d="M67.679,143.615a18.05,18.05,0,0,0-3.983-7.894c-.025-.031.021-.062.049-.043a11.815,11.815,0,0,1,3.018,3.88,8.082,8.082,0,0,1,1.021,4.035C67.784,143.65,67.692,143.679,67.679,143.615Z" transform="translate(-63.689 -131.749)" fill="#263238"/>
                      </g>
                      <path id="Path_80179" data-name="Path 80179" d="M70.133,148.56a9.2,9.2,0,0,1,.306,1.657,3.088,3.088,0,0,1-.213,1.6,1.015,1.015,0,0,1-.531.5,1.476,1.476,0,0,1-.743.087,1.8,1.8,0,0,1-1.178-.875l-.65-1.05.246,1.213a5.051,5.051,0,0,1,.075,1.636,1.807,1.807,0,0,1-.685,1.31,1.033,1.033,0,0,1-1.3-.03,3.124,3.124,0,0,1-.876-1.3l-.535-1.362.059,1.456a4.747,4.747,0,0,1-.1,1.208,1.956,1.956,0,0,1-.508,1.008.93.93,0,0,1-.958.207,2.057,2.057,0,0,1-.823-.8,16.2,16.2,0,0,1-1.1-2.285c-.17-.393-.339-.789-.528-1.176a3.053,3.053,0,0,0-.734-1.054,3.3,3.3,0,0,1,.626,1.1c.157.4.3.8.434,1.206a13.769,13.769,0,0,0,1.005,2.393,2.406,2.406,0,0,0,.956,1,1.321,1.321,0,0,0,1.426-.25,2.394,2.394,0,0,0,.665-1.234,5.215,5.215,0,0,0,.136-1.343l-.475.094a3.588,3.588,0,0,0,1.019,1.543,1.5,1.5,0,0,0,.951.351,1.693,1.693,0,0,0,.949-.318,2.281,2.281,0,0,0,.868-1.658,5.49,5.49,0,0,0-.111-1.8l-.4.163a2.153,2.153,0,0,0,1.513,1,1.816,1.816,0,0,0,.913-.156,1.308,1.308,0,0,0,.65-.663,3.163,3.163,0,0,0,.118-1.732A7.574,7.574,0,0,0,70.133,148.56Z" transform="translate(-57.01 -140.141)" fill="#263238"/>
                    </g>
                    <g id="Group_43328" data-name="Group 43328" transform="translate(6.885 5.62)">
                      <path id="Path_80180" data-name="Path 80180" d="M87.682,148.974s6.915-12.658.459-12.826c-1.56-.041-7.8,2.486-7.347,3.749.582,1.631,3.371,1.131,5.072.539,0,0-2.047,3.6.038,5.777A8.263,8.263,0,0,1,87.682,148.974Z" transform="translate(-80.516 -136.13)" fill="#ad6359"/>
                      <path id="Path_80181" data-name="Path 80181" d="M87.7,136.079a6.3,6.3,0,0,0-1.828.2,13.661,13.661,0,0,0-1.767.535,21.172,21.172,0,0,0-3.358,1.554,3.472,3.472,0,0,0-.772.6,1.3,1.3,0,0,0-.288.481.915.915,0,0,0-.048.306.96.96,0,0,0,.058.3,1.551,1.551,0,0,0,.705.813,2.907,2.907,0,0,0,.958.309,5.578,5.578,0,0,0,1.9-.1,12.667,12.667,0,0,0,1.794-.509l-.253-.311a7.458,7.458,0,0,0-.532,1.312,6.889,6.889,0,0,0-.275,1.378,4.768,4.768,0,0,0,.086,1.4,3.621,3.621,0,0,0,.535,1.275,4.089,4.089,0,0,1-.388-1.3,4.948,4.948,0,0,1,.036-1.342,6.6,6.6,0,0,1,.337-1.3,7.141,7.141,0,0,1,.569-1.2l.284-.469-.536.158a13.47,13.47,0,0,1-1.743.435,5.427,5.427,0,0,1-1.74.069,1.512,1.512,0,0,1-1.257-.784c-.169-.38.347-.808.828-1.118a17.456,17.456,0,0,1,1.575-.879c.541-.276,1.085-.546,1.642-.786A11.7,11.7,0,0,1,87.7,136.079Z" transform="translate(-79.635 -136.067)" fill="#263238"/>
                    </g>
                  </g>
                </g>
                <g id="Group_43333" data-name="Group 43333" transform="translate(1.101 19.239)">
                  <path id="Path_80182" data-name="Path 80182" d="M68.2,196.852,54.26,199.9a9.788,9.788,0,0,0-.108,5.387c1.539,5.208,6.13,16.385,9.835,16.127,4.009-.28,4.984-14.254,4.916-21.095A7.509,7.509,0,0,0,68.2,196.852Z" transform="translate(-53.818 -196.852)" fill="#1e88e5"/>
                  <g id="Group_43331" data-name="Group 43331" transform="translate(0.216 5.437)" opacity="0.1">
                    <path id="Path_80183" data-name="Path 80183" d="M69.641,221.12c0,.294-.011.6-.02.9-.336.168-.681.327-1.035.464-.262.1-.531.2-.8.278-.139.04-.278.081-.419.112a3.851,3.851,0,0,1-.441.078,4.936,4.936,0,0,1-1.741-.143c-.549-.128-1.073-.3-1.6-.423a7.946,7.946,0,0,0-1.6-.22,5.6,5.6,0,0,0-1.575.177c-.125.031-.253.072-.372.11s-.231.087-.35.137c-.235.108-.477.22-.719.338l-1.459.712c-.488.24-.984.479-1.483.708-.3.143-.612.276-.925.4-.069-.222-.134-.432-.195-.636-.047-.155-.087-.309-.119-.464.764-.3,1.537-.614,2.312-.93.509-.2,1.013-.415,1.541-.594.264-.087.529-.177.809-.244.141-.034.282-.067.437-.09s.287-.034.43-.04a18.674,18.674,0,0,1,3.329.271,11.373,11.373,0,0,0,3.148-.007c.235-.04.484-.1.735-.168s.5-.146.751-.229C68.729,221.472,69.184,221.3,69.641,221.12Z" transform="translate(-54.78 -221.12)"/>
                    <path id="Path_80184" data-name="Path 80184" d="M74.089,232.04c-.007.161-.013.323-.022.486-.184.155-.37.3-.562.45a9.59,9.59,0,0,1-1.205.784,5.2,5.2,0,0,1-.683.3,2.993,2.993,0,0,1-.762.157,10.155,10.155,0,0,1-2.859-.338l-1.362-.314c-.224-.052-.448-.1-.672-.143a4.56,4.56,0,0,0-.65-.09,1.072,1.072,0,0,0-.148,0l-.161.02-.161.031c-.052.011-.105.029-.159.043a2.965,2.965,0,0,0-.614.267,4.95,4.95,0,0,0-1.066.863c-.164.166-.314.343-.468.518l-.457.54a3.886,3.886,0,0,1-1.12.963,1.015,1.015,0,0,1-.141.065c-.069-.181-.137-.361-.2-.54.034-.013.069-.025.1-.04a4.888,4.888,0,0,0,1.1-.712c.358-.291.7-.616,1.037-.939a9.336,9.336,0,0,1,1.078-.93,3.891,3.891,0,0,1,.627-.372c.114-.052.231-.094.35-.134l.181-.052c.063-.013.137-.027.2-.034a3.912,3.912,0,0,1,.744.009c.24.02.475.054.708.09.466.074.925.159,1.382.237s.912.152,1.362.213a8.759,8.759,0,0,0,1.326.1,2.448,2.448,0,0,0,.614-.09,4.489,4.489,0,0,0,.612-.224,10.331,10.331,0,0,0,1.2-.641Q73.67,232.325,74.089,232.04Z" transform="translate(-59.304 -229.593)"/>
                  </g>
                  <g id="Group_43332" data-name="Group 43332" transform="translate(1.338 3.669)">
                    <path id="Path_80185" data-name="Path 80185" d="M72.66,213.311a128.1,128.1,0,0,1-12.843,2.983.02.02,0,0,1-.011-.039c4.793-1.47,12.376-2.99,12.842-3.028C72.7,213.223,72.7,213.3,72.66,213.311Z" transform="translate(-59.791 -213.227)" fill="#263238"/>
                    <path id="Path_80186" data-name="Path 80186" d="M113.279,247.037c-.163,1.307-.535,3.379-.836,4.661-.019.081-.039.161-.058.242a7.623,7.623,0,0,1,.129,1.394c0,.545-.048,1.086-.1,1.628a.018.018,0,0,1-.036,0,10.81,10.81,0,0,0-.014-1.618c-.025-.321-.05-.643-.078-.965-.293,1.224-.6,2.445-.983,3.644-.007.023-.039.01-.034-.012.288-1.3.6-2.6.835-3.913s.787-4.386,1.016-5.688C113.3,245.376,113.33,246.629,113.279,247.037Z" transform="translate(-99.731 -238.664)" fill="#263238"/>
                  </g>
                </g>
              </g>
            </g>
            <g id="Group_43351" data-name="Group 43351" transform="translate(20.896 2.32)">
              <g id="Group_43350" data-name="Group 43350">
                <g id="Group_43349" data-name="Group 43349">
                  <g id="Group_43337" data-name="Group 43337" transform="translate(7.777 15.054)">
                    <g id="Group_43336" data-name="Group 43336">
                      <path id="Path_80187" data-name="Path 80187" d="M176.9,196.993c.162.478,2.8,3.423,5.028,3.1.724-.106.321-4.084.321-4.084l.037-.3.519-4.206-5.877-2.975S176.837,196.79,176.9,196.993Z" transform="translate(-176.88 -188.528)" fill="#ad6359"/>
                      <path id="Path_80188" data-name="Path 80188" d="M182.824,191.505l-.521,4.2-.036.3s.072.72.1,1.555a6.433,6.433,0,0,1-5.467-3.827c.013-2.385.047-5.211.047-5.211Z" transform="translate(-176.896 -188.53)" fill="#263238"/>
                    </g>
                  </g>
                  <g id="Group_43348" data-name="Group 43348">
                    <path id="Path_80189" data-name="Path 80189" d="M174.826,137.773c2.145,8.824-2.9,11.105-4.8,11.565-1.728.418-7.664,1.622-10.709-6.933s.379-12.342,4.28-13.507S172.681,128.949,174.826,137.773Z" transform="translate(-154.567 -126.916)" fill="#ad6359"/>
                    <g id="Group_43343" data-name="Group 43343" transform="translate(11.001 10.234)">
                      <path id="Path_80190" data-name="Path 80190" d="M216.555,167.892a5.9,5.9,0,0,1-.627-.025,1.015,1.015,0,0,1-.635-.147.323.323,0,0,1-.065-.389.8.8,0,0,1,.747-.317,1.178,1.178,0,0,1,.8.286A.345.345,0,0,1,216.555,167.892Z" transform="translate(-209.831 -167.015)" fill="#263238"/>
                      <path id="Path_80191" data-name="Path 80191" d="M191.717,173.109a6,6,0,0,0,.583-.231,1.016,1.016,0,0,0,.55-.349.324.324,0,0,0-.067-.389.8.8,0,0,0-.81-.052,1.175,1.175,0,0,0-.658.534A.345.345,0,0,0,191.717,173.109Z" transform="translate(-191.271 -170.887)" fill="#263238"/>
                      <path id="Path_80192" data-name="Path 80192" d="M204.917,204.1c.163.128.331.31.556.305a1.633,1.633,0,0,0,.644-.226.022.022,0,0,1,.03.029.833.833,0,0,1-.744.418.658.658,0,0,1-.542-.492C204.847,204.1,204.893,204.083,204.917,204.1Z" transform="translate(-201.814 -195.786)" fill="#263238"/>
                      <g id="Group_43339" data-name="Group 43339" transform="translate(3.237 6.644)">
                        <path id="Path_80193" data-name="Path 80193" d="M207.812,196.872a2.534,2.534,0,0,1-.759,1.035,1.14,1.14,0,0,1-.654.232c-.518.011-.656-.427-.676-.83a2.727,2.727,0,0,1,.05-.641A3.281,3.281,0,0,0,207.812,196.872Z" transform="translate(-205.72 -196.669)" fill="#fff"/>
                        <g id="Group_43338" data-name="Group 43338" transform="translate(0 0.573)">
                          <path id="Path_80194" data-name="Path 80194" d="M211.7,200.13c-.024.033-.051.071-.079.106a2.192,2.192,0,0,1-.492-.005C211.32,200.2,211.512,200.167,211.7,200.13Z" transform="translate(-209.916 -199.928)" fill="#dbdbdb"/>
                          <path id="Path_80195" data-name="Path 80195" d="M206.413,199.494a1.533,1.533,0,0,1-.686-.153c0-.014,0-.031,0-.045s0-.045,0-.068A6.08,6.08,0,0,0,206.413,199.494Z" transform="translate(-205.72 -199.228)" fill="#dbdbdb"/>
                        </g>
                      </g>
                      <g id="Group_43340" data-name="Group 43340" transform="translate(3.256 2.026)">
                        <path id="Path_80196" data-name="Path 80196" d="M207.834,179.717s.277.89.349,1.32c.007.04-.094.077-.239.109-.006,0-.01.007-.017,0a2.07,2.07,0,0,1-2.111-.433c-.037-.037.011-.09.054-.07a3.12,3.12,0,0,0,1.954.225c.011-.124-.528-1.525-.458-1.525.294,0,.818.044,1.013.059-.167-.582-.723-2.212-1.025-3.273-.019-.066.081-.105.108-.046a29.226,29.226,0,0,1,1.419,3.614C208.91,179.8,208.018,179.762,207.834,179.717Z" transform="translate(-205.803 -176.056)" fill="#263238"/>
                      </g>
                      <g id="Group_43341" data-name="Group 43341" transform="translate(0.935 3.165)">
                        <path id="Path_80197" data-name="Path 80197" d="M195.447,181.847a.868.868,0,0,1,.132-.441.625.625,0,0,1,.425-.262.563.563,0,0,1,.476.172.992.992,0,0,1,.22.4,1.826,1.826,0,0,1,.054.268,1.222,1.222,0,0,1-.049.562,1.825,1.825,0,0,0-.074-.4,2.487,2.487,0,0,0-.129-.349c-.108-.229-.275-.41-.464-.373-.2.022-.329.2-.377.456a4.028,4.028,0,0,0-.049.789A1.786,1.786,0,0,1,195.447,181.847Z" transform="translate(-195.445 -181.139)" fill="#263238"/>
                      </g>
                      <g id="Group_43342" data-name="Group 43342" transform="translate(5.822 2.235)">
                        <path id="Path_80198" data-name="Path 80198" d="M218.473,177.447a.866.866,0,0,0-.288-.359.625.625,0,0,0-.493-.083.564.564,0,0,0-.375.339.988.988,0,0,0-.055.45,1.831,1.831,0,0,0,.051.269,1.222,1.222,0,0,0,.257.5,1.853,1.853,0,0,1-.083-.4,2.478,2.478,0,0,1-.011-.371c.014-.253.1-.483.289-.52.2-.056.382.065.521.281a4.023,4.023,0,0,1,.343.712A1.781,1.781,0,0,0,218.473,177.447Z" transform="translate(-217.256 -176.988)" fill="#263238"/>
                      </g>
                    </g>
                    <g id="Group_43344" data-name="Group 43344">
                      <path id="Path_80199" data-name="Path 80199" d="M148.507,137.623c2.7.03,3.914-3.259,3.132-5.8,0,0,7.2.526,7.208-5.233a5.643,5.643,0,0,0,4.8,2.3l.924,2.068c.721-.255,1.378-2.385-.512-3.914a6.857,6.857,0,0,0-2.5-4.446,3.915,3.915,0,0,0-4.239-.34,5.922,5.922,0,0,0-4.373-.808,5.05,5.05,0,0,0-3.556,2.958s-3.5.886-3.956,3.437a5.225,5.225,0,0,0,.945,4.161,3.646,3.646,0,0,0-.252,3.161C146.5,136.531,147.7,137.614,148.507,137.623Z" transform="translate(-144.63 -121.339)" fill="#263238"/>
                      <path id="Path_80200" data-name="Path 80200" d="M180.472,142.536a6.774,6.774,0,0,1,.1,1.4,5.693,5.693,0,0,1-.179,1.371,3.623,3.623,0,0,1-1.534,2.158,5.848,5.848,0,0,1-2.6.817c-.464.013-.931.06-1.4.047s-.937-.05-1.411-.06c.463.084.932.148,1.4.223.471.046.949.028,1.426.045a5.8,5.8,0,0,0,2.759-.795,3.791,3.791,0,0,0,1.6-2.375A5.726,5.726,0,0,0,180.472,142.536Z" transform="translate(-166.443 -137.787)" fill="#263238"/>
                      <path id="Path_80201" data-name="Path 80201" d="M146.926,135.041a6.629,6.629,0,0,0-2.6.727,3.98,3.98,0,0,0-1.888,1.977,4.383,4.383,0,0,0-.259,1.364,4.046,4.046,0,0,0,.149,1.372,3.7,3.7,0,0,0,1.589,2.157,4.07,4.07,0,0,1-1.342-2.22,4.537,4.537,0,0,1,.171-2.552,3.4,3.4,0,0,1,.682-1.076,5.148,5.148,0,0,1,1.023-.8A8.4,8.4,0,0,1,146.926,135.041Z" transform="translate(-142.17 -131.971)" fill="#263238"/>
                      <path id="Path_80202" data-name="Path 80202" d="M198.791,122.551a6.776,6.776,0,0,1,2.077-.53,4.1,4.1,0,0,1,2.044.329,4.155,4.155,0,0,1,1.574,1.345,7.326,7.326,0,0,1,.969,1.915,5.39,5.39,0,0,0-.758-2.057,3.69,3.69,0,0,0-3.859-1.783A5.108,5.108,0,0,0,198.791,122.551Z" transform="translate(-186.105 -121.632)" fill="#263238"/>
                      <path id="Path_80203" data-name="Path 80203" d="M208.977,146.279a7.443,7.443,0,0,1-2.237-1.04,4.5,4.5,0,0,1-.889-.823,5.553,5.553,0,0,1-.665-1.051,3.066,3.066,0,0,0,.459,1.2,3.334,3.334,0,0,0,.9.943,4.157,4.157,0,0,0,1.163.576A3.865,3.865,0,0,0,208.977,146.279Z" transform="translate(-191.067 -138.43)" fill="#263238"/>
                    </g>
                    <g id="Group_43345" data-name="Group 43345" transform="translate(2.12 9.8)">
                      <path id="Path_80204" data-name="Path 80204" d="M185,177.335a3.172,3.172,0,1,1,2.789-4.16h0a3.173,3.173,0,0,1-2.789,4.16Zm-.414-5.905a2.748,2.748,0,1,0,2.8,1.878A2.738,2.738,0,0,0,184.588,171.43Z" transform="translate(-174.892 -169.673)" fill="#1e88e5"/>
                      <path id="Path_80205" data-name="Path 80205" d="M217.8,171.37c-1.211.085-2.4-1.078-2.7-2.7a3.785,3.785,0,0,1,.247-2.3,1.975,1.975,0,0,1,3.323-.628,3.789,3.789,0,0,1,1.07,2.054c.324,1.718-.452,3.313-1.73,3.555A1.864,1.864,0,0,1,217.8,171.37Zm-.734-5.863a1.277,1.277,0,0,0-.16.021,1.691,1.691,0,0,0-1.18,1.016,3.369,3.369,0,0,0-.213,2.043c.282,1.489,1.361,2.54,2.414,2.34s1.674-1.571,1.393-3.059a3.364,3.364,0,0,0-.945-1.825A1.746,1.746,0,0,0,217.062,165.508Z" transform="translate(-200.816 -165.079)" fill="#1e88e5"/>
                      <path id="Path_80206" data-name="Path 80206" d="M208.222,179.191l-.277-.227a1.46,1.46,0,0,1,1.943-.469l-.211.288C208.986,178.276,208.253,179.154,208.222,179.191Z" transform="translate(-195.328 -175.314)" fill="#1e88e5"/>
                      <path id="Path_80207" data-name="Path 80207" d="M151.975,186.874l-.343-.1c.048-.16.488-1.569,1.248-1.844.711-.256,5.5-.7,5.706-.723l.033.356c-1.374.127-5.069.5-5.617.7C152.5,185.445,152.09,186.488,151.975,186.874Z" transform="translate(-151.632 -179.919)" fill="#1e88e5"/>
                    </g>
                    <g id="Group_43347" data-name="Group 43347" transform="translate(2.734 14.094)">
                      <g id="Group_43346" data-name="Group 43346">
                        <path id="Path_80208" data-name="Path 80208" d="M158.26,186.044s-2.388-2.5-3.553-1.609.931,4.729,2.508,5.056a1.535,1.535,0,0,0,1.909-1.127Z" transform="translate(-154.37 -184.243)" fill="#ad6359"/>
                        <path id="Path_80209" data-name="Path 80209" d="M158.616,189.933a.021.021,0,0,0,0,.041,3.882,3.882,0,0,1,2.351,2.1.848.848,0,0,0-1.289-.037c-.024.024.009.062.037.052a.945.945,0,0,1,1.077.168,4.566,4.566,0,0,1,.62.756c.063.086.225.01.172-.092l-.012-.023C161.393,191.557,160.07,189.849,158.616,189.933Z" transform="translate(-157.651 -188.656)" fill="#263238"/>
                      </g>
                    </g>
                  </g>
                </g>
              </g>
            </g>
            <path id="Path_80210" data-name="Path 80210" d="M115.791,224.176c-.366-.455,2-1.795,2.612-1.287s3.72,8.39,2.712,16.942-17.568,17.761-18.176,16.483a3.444,3.444,0,0,1,.474-2.516c.568-.677,12.52-8.093,13.7-13.4C118.163,235.685,116.724,225.335,115.791,224.176Z" transform="translate(-90.761 -197.728)" fill="#455a64"/>
            <path id="Path_80211" data-name="Path 80211" d="M201.988,226.648c-.5-.944,2.063-.184,2.344.323s3.7,8.68,4.294,14.022c.236,2.139,1.066,7.9,1.066,7.9s-2.5-7.734-4.562-14.2A67.84,67.84,0,0,0,201.988,226.648Z" transform="translate(-167.64 -200.385)" fill="#455a64"/>
          </g>
        </g>
      </g>
    </g>
    <g id="Plant" transform="translate(108.329 83.421)">
      <g id="Group_43363" data-name="Group 43363">
        <g id="Group_43360" data-name="Group 43360">
          <g id="Group_43355" data-name="Group 43355" transform="translate(11.842 8.378)">
            <path id="Path_80212" data-name="Path 80212" d="M418.511,311.546s2.621-9.456,4.714-12.668a42.925,42.925,0,0,1,5.994-6.739S429.128,306.718,418.511,311.546Z" transform="translate(-418.511 -292.139)" fill="#1e88e5"/>
            <path id="Path_80213" data-name="Path 80213" d="M419.284,324.676a45.307,45.307,0,0,0,2.389-4.582,32.163,32.163,0,0,1,1.3-4.972c.011-.03.053-.014.046.017-.348,1.494-.752,2.974-1.12,4.464,1.058-2.3,2.064-4.632,3.324-6.808a14.579,14.579,0,0,1,1.215-3.026c.014-.028.06-.013.046.017a19.491,19.491,0,0,0-.818,2.27,22.658,22.658,0,0,1,1.991-2.765c.046-.054.138.006.092.064a33.365,33.365,0,0,0-3.955,7.11,37.784,37.784,0,0,0,3.289-4.132.014.014,0,0,1,.023.016,33.909,33.909,0,0,1-3.521,4.589c-.807,1.824-1.6,3.656-2.562,5.391a31.209,31.209,0,0,0,4.863-5.784.044.044,0,0,1,.072.05,24,24,0,0,1-5.085,6,23.543,23.543,0,0,1-1.407,2.21A.112.112,0,0,1,419.284,324.676Z" transform="translate(-419.097 -305.431)" fill="#263238"/>
          </g>
          <g id="Group_43357" data-name="Group 43357" transform="translate(8.091)">
            <path id="Path_80214" data-name="Path 80214" d="M404.708,283.381s4.711-8.719,3.342-17.173-2.834-11.464-2.834-11.464A33.8,33.8,0,0,0,404.708,283.381Z" transform="translate(-401.769 -254.744)" fill="#1e88e5"/>
            <g id="Group_43356" data-name="Group 43356" transform="translate(0.963 4.15)">
              <path id="Path_80215" data-name="Path 80215" d="M406.11,284.047a41.456,41.456,0,0,0,1.818,7.041c.013-3.1.072-6.205.155-9.307a24.106,24.106,0,0,1-.889-5.778c0-.057.083-.054.088,0a33.075,33.075,0,0,0,.825,4.972q.107-3.839.248-7.677a.033.033,0,0,1,.067,0c0,4,0,8-.027,11.994a32.172,32.172,0,0,0,1.358-4.75.014.014,0,0,1,.027,0,18.673,18.673,0,0,1-1.39,5.4c-.018,2.556-.046,5.111-.1,7.666a40.511,40.511,0,0,0,1.879-8.219.03.03,0,0,1,.06,0,30.761,30.761,0,0,1-1.913,9.357.172.172,0,0,1-.052.075q-.036,1.4-.081,2.8a.1.1,0,0,1-.207,0q-.055-2.866-.046-5.732a25.785,25.785,0,0,1-1.857-7.849C406.067,284.028,406.107,284.024,406.11,284.047Z" transform="translate(-406.069 -273.268)" fill="#263238"/>
              <path id="Path_80216" data-name="Path 80216" d="M407.335,315.226a16.4,16.4,0,0,1,.329,2.3c0,.026-.039.03-.045.005a16.381,16.381,0,0,1-.388-2.3C407.225,315.179,407.324,315.168,407.335,315.226Z" transform="translate(-406.971 -305.796)" fill="#263238"/>
              <path id="Path_80217" data-name="Path 80217" d="M419.1,286.855c0-.026.044-.018.045.007a5.945,5.945,0,0,1-.236,1.589c-.012.042-.072.023-.064-.019C418.949,287.908,419.012,287.381,419.1,286.855Z" transform="translate(-415.982 -283.799)" fill="#263238"/>
            </g>
          </g>
          <g id="Group_43359" data-name="Group 43359" transform="translate(0 8.849)">
            <path id="Path_80218" data-name="Path 80218" d="M374.97,314.7s.192-9.1-2.405-13.626a19.558,19.558,0,0,0-6.906-6.829S367.4,310.285,374.97,314.7Z" transform="translate(-365.659 -294.241)" fill="#1e88e5"/>
            <g id="Group_43358" data-name="Group 43358" transform="translate(1.523 3.262)">
              <path id="Path_80219" data-name="Path 80219" d="M378.887,318.21a33.756,33.756,0,0,0,3.515,4.479q-.778-2.792-1.8-5.489a15.329,15.329,0,0,1-3.794-4.37.025.025,0,0,1,.042-.025,18.268,18.268,0,0,0,3.6,4,70.576,70.576,0,0,0-3.616-7.915.058.058,0,0,1,.1-.058,43.291,43.291,0,0,1,2.267,4.154c-.244-.973-.438-1.968-.687-2.934a.021.021,0,0,1,.041-.011,16.568,16.568,0,0,1,1.067,3.86,46.468,46.468,0,0,1,2.287,6.229c-.067-1.365-.152-2.723-.292-4.084,0-.026.041-.032.045-.006a22.216,22.216,0,0,1,.393,4.585q.562,2.034.942,4.112c.007.037-.048.053-.057.016-.141-.58-.294-1.155-.451-1.728-.01,0-.02,0-.029-.012a18.483,18.483,0,0,1-3.586-4.791A.008.008,0,0,1,378.887,318.21Z" transform="translate(-375.832 -308.801)" fill="#263238"/>
              <path id="Path_80220" data-name="Path 80220" d="M372.5,317.715c.29.314.555.645.835.968a7.438,7.438,0,0,1,.748.878.015.015,0,0,1-.02.02,4.421,4.421,0,0,1-.864-.857,7.322,7.322,0,0,1-.74-.978C372.444,317.721,372.48,317.692,372.5,317.715Z" transform="translate(-372.455 -315.711)" fill="#263238"/>
            </g>
          </g>
        </g>
        <g id="Group_43362" data-name="Group 43362" transform="translate(5.03 26.078)">
          <g id="Group_43361" data-name="Group 43361" transform="translate(0.765 2.115)">
            <path id="Path_80221" data-name="Path 80221" d="M402.757,380.577l-.327,2.918-.987,8.821h-8.6l-.987-8.821-.327-2.918h11.233Z" transform="translate(-391.524 -380.577)" fill="#455a64"/>
            <path id="Path_80222" data-name="Path 80222" d="M402.757,380.577l-.327,2.918H391.851l-.327-2.918h11.233Z" transform="translate(-391.524 -380.577)" fill="#37474f"/>
          </g>
          <rect id="Rectangle_21345" data-name="Rectangle 21345" width="12.762" height="3.305" transform="translate(12.762 3.305) rotate(180)" fill="#455a64"/>
        </g>
      </g>
    </g>
    <g id="Books" transform="translate(84.289 107.844)">
      <g id="Group_43368" data-name="Group 43368">
        <g id="Group_43364" data-name="Group 43364" transform="translate(3.672 12.47)">
          <rect id="Rectangle_21346" data-name="Rectangle 21346" width="25.744" height="3.046" fill="#37474f"/>
          <rect id="Rectangle_21347" data-name="Rectangle 21347" width="1.05" height="3.046" transform="translate(5.05)" fill="#455a64"/>
          <rect id="Rectangle_21348" data-name="Rectangle 21348" width="2.515" height="3.046" transform="translate(20.199)" fill="#455a64"/>
        </g>
        <g id="Group_43365" data-name="Group 43365" transform="translate(1.267 3.562)">
          <rect id="Rectangle_21349" data-name="Rectangle 21349" width="26.294" height="4.026" fill="#37474f"/>
          <rect id="Rectangle_21350" data-name="Rectangle 21350" width="6.315" height="1.414" transform="translate(15.327 1.306)" fill="#1e88e5"/>
          <path id="Path_80223" data-name="Path 80223" d="M368.975,385.926a.835.835,0,1,1-.833-.781A.809.809,0,0,1,368.975,385.926Z" transform="translate(-344.166 -383.913)" fill="#1e88e5"/>
        </g>
        <g id="Group_43366" data-name="Group 43366">
          <rect id="Rectangle_21351" data-name="Rectangle 21351" width="13.283" height="3.554" fill="#263238"/>
          <rect id="Rectangle_21352" data-name="Rectangle 21352" width="12.279" height="3.554" transform="translate(13.283)" fill="#263238"/>
          <rect id="Rectangle_21353" data-name="Rectangle 21353" width="13.283" height="2.816" transform="translate(0 0.369)" fill="#fff"/>
          <path id="Path_80224" data-name="Path 80224" d="M263.522,367.8q2.088-.03,4.175-.041l1.888-.012,4.175.012c1.392.007.5.021,1.889.041-1.392.02-.5.034-1.889.041l-4.175.012-1.888-.013Q265.61,367.828,263.522,367.8Z" transform="translate(-262.366 -366.849)" fill="#dbdbdb"/>
          <path id="Path_80225" data-name="Path 80225" d="M263.522,370.264q2.088-.03,4.175-.041l1.888-.012,4.175.012c1.392.007.5.021,1.889.041-1.392.02-.5.034-1.889.041l-4.175.012L267.7,370.3Q265.61,370.294,263.522,370.264Z" transform="translate(-262.366 -368.763)" fill="#dbdbdb"/>
          <path id="Path_80226" data-name="Path 80226" d="M263.522,372.729q2.088-.03,4.175-.041l1.888-.013,4.175.012c1.392.007.5.022,1.889.042-1.392.02-.5.034-1.889.041l-4.175.012-1.888-.013Q265.61,372.759,263.522,372.729Z" transform="translate(-262.366 -370.676)" fill="#dbdbdb"/>
          <path id="Path_80227" data-name="Path 80227" d="M263.522,375.195q2.088-.029,4.175-.041l1.888-.013,4.175.013c1.392.007.5.021,1.889.041-1.392.02-.5.034-1.889.042l-4.175.012-1.888-.013Q265.61,375.225,263.522,375.195Z" transform="translate(-262.366 -372.589)" fill="#dbdbdb"/>
          <rect id="Rectangle_21354" data-name="Rectangle 21354" width="1.729" height="3.554" transform="translate(16.004)" fill="#455a64"/>
          <rect id="Rectangle_21355" data-name="Rectangle 21355" width="1.162" height="3.554" transform="translate(23.765)" fill="#455a64"/>
        </g>
        <g id="Group_43367" data-name="Group 43367" transform="translate(0.159 7.586)">
          <rect id="Rectangle_21356" data-name="Rectangle 21356" width="14.96" height="4.884" transform="translate(26.32 4.884) rotate(180)" fill="#1e88e5"/>
          <rect id="Rectangle_21357" data-name="Rectangle 21357" width="11.36" height="4.884" transform="translate(11.36 4.884) rotate(180)" fill="#1e88e5"/>
          <rect id="Rectangle_21358" data-name="Rectangle 21358" width="14.96" height="3.87" transform="translate(26.32 4.377) rotate(180)" fill="#fff"/>
          <path id="Path_80228" data-name="Path 80228" d="M323.765,413.4q-1.749.03-3.5.041l-3.5.012-3.5-.012q-1.749-.011-3.5-.041,1.749-.03,3.5-.041l3.5-.012,3.5.013Q322.016,413.374,323.765,413.4Z" transform="translate(-298.413 -409.824)" fill="#dbdbdb"/>
          <path id="Path_80229" data-name="Path 80229" d="M323.765,410.016q-1.749.03-3.5.041l-3.5.012-3.5-.012q-1.749-.011-3.5-.041,1.749-.03,3.5-.041l3.5-.012,3.5.013Q322.016,409.985,323.765,410.016Z" transform="translate(-298.413 -407.194)" fill="#dbdbdb"/>
          <path id="Path_80230" data-name="Path 80230" d="M323.765,406.627q-1.749.03-3.5.041l-3.5.012-3.5-.012q-1.749-.011-3.5-.041,1.749-.03,3.5-.041l3.5-.012,3.5.013Q322.016,406.6,323.765,406.627Z" transform="translate(-298.413 -404.564)" fill="#dbdbdb"/>
          <path id="Path_80231" data-name="Path 80231" d="M323.765,403.238q-1.749.03-3.5.041l-3.5.012-3.5-.012q-1.749-.011-3.5-.041,1.749-.03,3.5-.041l3.5-.012,3.5.013Q322.016,403.207,323.765,403.238Z" transform="translate(-298.413 -401.935)" fill="#dbdbdb"/>
          <rect id="Rectangle_21359" data-name="Rectangle 21359" width="2.126" height="4.884" transform="translate(1.81)" fill="#455a64"/>
        </g>
      </g>
    </g>
    <g id="Speech_Bubble" data-name="Speech Bubble" transform="translate(80.092 41.52)">
      <g id="Group_43371" data-name="Group 43371" transform="translate(0 0)">
        <g id="Group_43370" data-name="Group 43370">
          <g id="Group_43369" data-name="Group 43369">
            <path id="Path_80232" data-name="Path 80232" d="M257.1,75.931a8,8,0,0,1-12.775,6.427l-3.922,1,1.633-3.652A8.005,8.005,0,1,1,257.1,75.931Z" transform="translate(-240.228 -67.882)" fill="#fff"/>
            <path id="Path_80233" data-name="Path 80233" d="M256.5,75.778a8.058,8.058,0,0,1-1.189,4.2,8.872,8.872,0,0,1-.635.9,8.975,8.975,0,0,1-.766.8,5.359,5.359,0,0,1-.417.364l-.442.334c-.148.111-.312.2-.467.3l-.236.145c-.08.046-.165.083-.247.125-.166.08-.331.164-.5.242l-.52.194a3.928,3.928,0,0,1-.53.162c-.18.043-.356.1-.539.131a7.892,7.892,0,0,1-1.1.134,6.988,6.988,0,0,1-1.111,0,8.118,8.118,0,0,1-2.167-.48,8.2,8.2,0,0,1-1.956-1.058l.067.013L239.827,83.3l-.2.051.083-.187,1.624-3.656,0,.1a7.934,7.934,0,0,1-.954-3.525,8.084,8.084,0,0,1,2.9-6.487,8.117,8.117,0,0,1,6.872-1.685,8.164,8.164,0,0,1,3.266,1.551A8.047,8.047,0,0,1,256.5,75.778Zm0,0a7.94,7.94,0,0,0-9.936-7.7,7.9,7.9,0,0,0-3.169,1.641,8.234,8.234,0,0,0-2.127,2.858,7.922,7.922,0,0,0,.263,6.924l.025.047-.022.048-1.641,3.648-.114-.136,3.926-.983.037-.009.03.023a7.887,7.887,0,0,0,4.037,1.56,6.9,6.9,0,0,0,1.1.015A7.776,7.776,0,0,0,250,83.6c.182-.024.357-.084.535-.124a3.888,3.888,0,0,0,.528-.154l.518-.186c.167-.075.332-.156.5-.234.082-.041.167-.076.248-.121l.236-.142c.155-.1.32-.182.468-.29l.443-.328a5.3,5.3,0,0,0,.417-.36,8.973,8.973,0,0,0,.767-.791,8.874,8.874,0,0,0,.638-.9A8.046,8.046,0,0,0,256.5,75.778Z" transform="translate(-239.63 -67.729)" fill="#263238"/>
          </g>
        </g>
        <path id="Path_80234" data-name="Path 80234" d="M260.977,91.923l-3.588-3.632L258.6,87.1l2.1,2.121,4.354-6.826,1.429.911Z" transform="translate(-253.411 -79.11)" fill="#1e88e5"/>
      </g>
    </g>
  </g>
</svg>
