<svg xmlns="http://www.w3.org/2000/svg" width="17.016" height="19.446" viewBox="0 0 17.016 19.446">
  <path id="Icon_metro-attachment" data-name="Icon metro-attachment" d="M15.572,8.139,14.338,6.906,8.17,13.073a2.617,2.617,0,0,0,3.7,3.7l7.4-7.4A4.361,4.361,0,1,0,13.1,3.206L5.333,10.976l-.017.016a6.082,6.082,0,0,0,8.6,8.6l.016-.017h0l5.3-5.3-1.234-1.233-5.3,5.3-.016.016A4.338,4.338,0,0,1,6.55,12.226l.017-.016h0l7.773-7.77a2.617,2.617,0,1,1,3.7,3.7l-7.4,7.4A.872.872,0,0,1,9.4,14.307l6.168-6.168Z" transform="translate(-3.535 -1.928)" fill="#35abdd"/>
</svg>
