<svg xmlns="http://www.w3.org/2000/svg" width="17.548" height="17.548" viewBox="0 0 17.548 17.548">
  <g id="Icon_feather-check-square" data-name="Icon feather-check-square" transform="translate(-3.5 -3.5)">
    <path id="Path_78868" data-name="Path 78868" d="M20.048,12.274v6.047a1.728,1.728,0,0,1-1.728,1.728H6.228A1.728,1.728,0,0,1,4.5,18.321V6.228A1.728,1.728,0,0,1,6.228,4.5h9.5" fill="none" stroke="#bac2c8" stroke-linecap="round" stroke-linejoin="round" stroke-width="2"/>
    <path id="Path_78869" data-name="Path 78869" d="M4.5,12.274v6.047a1.728,1.728,0,0,0,1.728,1.728H18.321a1.728,1.728,0,0,0,1.728-1.728V6.228A1.728,1.728,0,0,0,18.321,4.5h-9.5" transform="translate(0 0)" fill="none" stroke="#bac2c8" stroke-linecap="round" stroke-linejoin="round" stroke-width="2"/>
  </g>
</svg>
