<svg xmlns="http://www.w3.org/2000/svg" width="21.346" height="21.788" viewBox="0 0 21.346 21.788">
  <g id="Group_41577" data-name="Group 41577" transform="translate(-508.717 -21.827)">
    <path id="Path_78853" data-name="Path 78853" d="M573.941,651.31h-.063c-.035,0-.07,0-.1,0a10.4,10.4,0,0,1-2.3-.269,10.811,10.811,0,0,1-6.518-4.4,8.667,8.667,0,0,1-.8-1.345c.045-.033.091-.064.136-.1l3.393-2.626c.012.029.024.058.035.088a6.644,6.644,0,0,0,1.548,2.491,6.5,6.5,0,0,0,1.756,1.272,6.179,6.179,0,0,0,1.828.589,7.234,7.234,0,0,0,2.866-.137,5.873,5.873,0,0,0,1.413-.553c.184-.1.358-.216.54-.32a.827.827,0,0,0,.061.057l2.021,1.564,1.344,1.035a7.164,7.164,0,0,1-.843.7,9.631,9.631,0,0,1-2.129,1.172,10.322,10.322,0,0,1-1.51.471,11.848,11.848,0,0,1-1.481.241C574.738,651.284,574.34,651.3,573.941,651.31Z" transform="translate(-54.277 -607.694)" fill="#34a753"/>
    <path id="Path_78854" data-name="Path 78854" d="M1033.965,455.387l-1.344-1.035-2.021-1.564a.83.83,0,0,1-.061-.057c0-.009.007-.023.014-.028a4.64,4.64,0,0,0,.99-.9,5.2,5.2,0,0,0,1.167-2.344c.054-.262.051-.263-.217-.263h-5.569c-.182,0-.171.029-.171-.166,0-1.247,0-2.494,0-3.741,0-.1.021-.144.12-.141.042,0,.083.009.125.009h9.848c.042,0,.084,0,.126-.007l.016.02.017.065,0,.005.005,0v0l0,.021a.137.137,0,0,0,.019.086.046.046,0,0,0,.015.052l.079.517c.018.174.041.348.052.523a13.362,13.362,0,0,1-.106,2.837,11.584,11.584,0,0,1-.383,1.715,9.985,9.985,0,0,1-1.742,3.34A7.6,7.6,0,0,1,1033.965,455.387Z" transform="translate(-507.143 -414.422)" fill="#4286f4"/>
    <path id="Path_78855" data-name="Path 78855" d="M513.4,310.517c-.087.31-.173.619-.232.936a6.55,6.55,0,0,0-.106,1.564,6.4,6.4,0,0,0,.189,1.252c.049.19.107.378.161.567l-3.393,2.626c-.044.034-.09.066-.136.1a7.7,7.7,0,0,1-.429-.956,10.861,10.861,0,0,1,.395-8.754.457.457,0,0,1,.034-.052.206.206,0,0,1,.027.015l2.643,2.052C512.833,310.084,513.117,310.3,513.4,310.517Z" transform="translate(0 -279.959)" fill="#fabb06"/>
    <path id="Path_78856" data-name="Path 78856" d="M567.643,30.558c-.283-.217-.566-.434-.848-.652l-2.643-2.052a.209.209,0,0,0-.027-.015,7.576,7.576,0,0,1,.532-.952,10.876,10.876,0,0,1,3.323-3.341,10.613,10.613,0,0,1,1.642-.866,10.94,10.94,0,0,1,5.933-.725,10.2,10.2,0,0,1,4.221,1.627,11.5,11.5,0,0,1,1.29,1.008c.066.059.056.089,0,.144q-1.469,1.429-2.932,2.864c-.056.055-.086.051-.142,0a5.774,5.774,0,0,0-1.672-1.069c-.22-.091-.448-.164-.677-.236a6.627,6.627,0,0,0-2.675-.192,6.434,6.434,0,0,0-2.074.66,6.656,6.656,0,0,0-3.214,3.71C567.669,30.5,567.655,30.53,567.643,30.558Z" transform="translate(-54.243)" fill="#ea4336"/>
  </g>
</svg>
