<svg xmlns="http://www.w3.org/2000/svg" width="20.601" height="20.641" viewBox="0 0 20.601 20.641">
  <g id="Group_41598" data-name="Group 41598" transform="translate(-492.481 -192.75)">
    <path id="Path_78857" data-name="Path 78857" d="M507.369,192.75h.322a.9.9,0,0,1,.647,1.022c-.015.183,0,.369,0,.564.252,0,.473,0,.693,0a3.991,3.991,0,0,1,3.915,2.952c.056.2.093.415.138.622V209.8a.655.655,0,0,0-.036.112,3.973,3.973,0,0,1-3.039,3.363c-.181.043-.364.075-.546.113H496.1c-.169-.034-.34-.062-.508-.1a3.977,3.977,0,0,1-3.112-3.917q-.005-5.51,0-11.019a4.961,4.961,0,0,1,.036-.542,3.97,3.97,0,0,1,3.591-3.45c.365-.023.733,0,1.118,0,0-.226.012-.406,0-.585a.9.9,0,0,1,.647-1.023h.322a.915.915,0,0,1,.644,1.047c-.014.172,0,.345,0,.528h7.889c0-.183.012-.357,0-.528A.915.915,0,0,1,507.369,192.75Zm-13.278,7.961v.222q0,4.192,0,8.384a2.372,2.372,0,0,0,2.444,2.459q6.245,0,12.491,0a2.372,2.372,0,0,0,2.446-2.457q0-4.192,0-8.384v-.223Zm.014-1.635h17.353c.269-2.508-1.5-3.363-3.124-3.09,0,.508,0,1.019,0,1.529a.8.8,0,1,1-1.606.005c-.007-.516,0-1.032,0-1.56h-7.889v.23c0,.443.005.887,0,1.33a.8.8,0,1,1-1.606-.006c0-.195,0-.39,0-.584,0-.32,0-.641,0-.957A2.569,2.569,0,0,0,494.106,199.076Z" fill="#35abdd"/>
    <path id="Path_78858" data-name="Path 78858" d="M567.634,474.793c-.261,0-.522,0-.783,0a.805.805,0,1,1,0-1.61q.783-.007,1.567,0a.8.8,0,1,1,0,1.609C568.156,474.8,567.9,474.793,567.634,474.793Z" transform="translate(-69.598 -265.355)" fill="#35abdd"/>
    <path id="Path_78859" data-name="Path 78859" d="M744.427,473.205c.261,0,.522,0,.783,0a.8.8,0,0,1,0,1.608q-.8.013-1.607,0a.8.8,0,0,1,.018-1.608C743.891,473.2,744.159,473.205,744.427,473.205Z" transform="translate(-236.881 -265.379)" fill="#35abdd"/>
    <path id="Path_78860" data-name="Path 78860" d="M744.414,386.324c-.261,0-.522,0-.783,0a.805.805,0,1,1,.008-1.61q.773-.007,1.547,0a.805.805,0,1,1,.012,1.61C744.936,386.328,744.675,386.324,744.414,386.324Z" transform="translate(-236.88 -181.641)" fill="#35abdd"/>
    <path id="Path_78861" data-name="Path 78861" d="M567.654,384.73c.254,0,.509,0,.763,0a.8.8,0,1,1,0,1.609q-.793.011-1.587,0a.8.8,0,1,1,.016-1.609C567.118,384.726,567.386,384.73,567.654,384.73Z" transform="translate(-69.599 -181.659)" fill="#35abdd"/>
    <path id="Path_78862" data-name="Path 78862" d="M655.927,386.331c-.254,0-.509,0-.763,0a.806.806,0,1,1-.007-1.611q.763-.005,1.526,0a.806.806,0,1,1,.007,1.611C656.436,386.335,656.182,386.331,655.927,386.331Z" transform="translate(-153.142 -181.648)" fill="#35abdd"/>
    <path id="Path_78863" data-name="Path 78863" d="M655.924,473.2c.261,0,.522,0,.783,0a.8.8,0,0,1,.017,1.608q-.8.015-1.607,0a.8.8,0,0,1,0-1.608C655.388,473.2,655.656,473.2,655.924,473.2Z" transform="translate(-153.14 -265.378)" fill="#35abdd"/>
  </g>
</svg>
