<svg xmlns="http://www.w3.org/2000/svg" width="177.913" height="28.123" viewBox="0 0 177.913 28.123">
  <g id="Group_41370" data-name="Group 41370" transform="translate(-42.751 -291.712)">
    <g id="Group_41369" data-name="Group 41369" transform="translate(42.751 291.712)">
      <path id="Path_1" data-name="Path 1" d="M70.874,300.11H64.742v-2.3H48.805v4.921H65.093a5.793,5.793,0,0,1,5.781,5.781v5.547a5.793,5.793,0,0,1-5.781,5.781H48.532a5.768,5.768,0,0,1-5.781-5.781v-2.617h6.054v2.3H64.742V308.82H48.532a5.768,5.768,0,0,1-5.781-5.781v-5.547a5.768,5.768,0,0,1,5.781-5.781H65.093a5.793,5.793,0,0,1,5.781,5.781Z" transform="translate(-42.751 -291.712)" fill="#09518c"/>
      <path id="Path_2" data-name="Path 2" d="M149.773,328.956h3.72v17.17h-3.72Z" transform="translate(-118.298 -318.003)" fill="#35abdd"/>
      <path id="Path_3" data-name="Path 3" d="M184.619,337a3.557,3.557,0,0,1-3.553,3.529H180.9c1.216,1.431,2.527,2.957,3.72,4.388v1.264H180.8l-4.746-5.652-4.912.024c.048,0,.071.048.071.143a.117.117,0,0,1-.071-.024v5.509h-3.7V329.037h13.617a3.557,3.557,0,0,1,3.553,3.529Zm-13.473-.191h9.73v-4.078h-9.73Z" transform="translate(-130.776 -318.06)" fill="#35abdd"/>
      <path id="Path_4" data-name="Path 4" d="M248.68,328.956v3.72h-6.725v13.45h-3.72v-13.45H231.51v-3.72Z" transform="translate(-175.997 -318.003)" fill="#35abdd"/>
      <path id="Path_5" data-name="Path 5" d="M296.056,328.956h3.72v17.17h-3.72Z" transform="translate(-221.56 -318.003)" fill="#35abdd"/>
      <path id="Path_6" data-name="Path 6" d="M329.834,328.956v3.72H317.72v3h9.753v3.72H317.72v6.725h-3.744v-17.17Z" transform="translate(-234.21 -318.003)" fill="#35abdd"/>
      <path id="Path_7" data-name="Path 7" d="M388.9,328.956l-7.965,10.779v6.391h-3.72v-6.415l-3.124-4.2c-1.5-2-3.482-4.722-4.817-6.558h4.412l5.389,6.772c1.741-2.194,3.649-4.578,5.365-6.772Z" transform="translate(-273.248 -318.003)" fill="#35abdd"/>
      <path id="Path_8" data-name="Path 8" d="M508.732,291.712h6.289v28.123h-6.093V300.969c-3.164,3.75-6.562,7.89-9.687,11.562l-9.726-11.523v18.827H483.46V291.712h6.25l9.531,11.366Z" transform="translate(-356.849 -291.712)" fill="#09518c"/>
      <path id="Path_9" data-name="Path 9" d="M619.836,332.676H607.722v3h9.753v3.72h-9.753v3h12.114v3.72H603.978v-17.17h15.858Z" transform="translate(-441.923 -318.003)" fill="#35abdd"/>
    </g>
  </g>
</svg>
