<svg xmlns="http://www.w3.org/2000/svg" width="28.251" height="27.374" viewBox="0 0 28.251 27.374">
  <g id="Group_43414" data-name="Group 43414" transform="translate(-192.022 22.053)">
    <path id="Path_80267" data-name="Path 80267" d="M198.195,1.858c0-.824,0-1.648,0-2.472a.27.27,0,0,0-.138-.258,16.32,16.32,0,0,1-2.349-1.772,11.332,11.332,0,0,1-3.376-5.507,9.588,9.588,0,0,1,1.113-7.461,11.952,11.952,0,0,1,2.574-2.953,14.475,14.475,0,0,1,5.342-2.819,16.638,16.638,0,0,1,6.193-.608,15.2,15.2,0,0,1,8.693,3.4,10.752,10.752,0,0,1,3.587,5.219,9.611,9.611,0,0,1-.905,7.735,12.828,12.828,0,0,1-4.8,4.813,15.349,15.349,0,0,1-6.071,2.046,16.352,16.352,0,0,1-3.4.047.5.5,0,0,0-.375.107q-1.03.816-2.06,1.632c-.884.7-1.761,1.413-2.651,2.109a.785.785,0,0,1-1.135-.085.743.743,0,0,1-.181-.405c-.039-.356-.048-.716-.053-1.075-.008-.565,0-1.13,0-1.7Zm1.784.692c.093-.071.14-.105.185-.142,1.147-.939,2.3-1.875,3.437-2.822a.623.623,0,0,1,.527-.15,14.617,14.617,0,0,0,3.36.067,13.876,13.876,0,0,0,5.673-1.791,10.909,10.909,0,0,0,4.2-4.132,7.908,7.908,0,0,0-.082-8.343,10.122,10.122,0,0,0-3.5-3.445,14.572,14.572,0,0,0-8.824-2.037,14.036,14.036,0,0,0-5.462,1.48,10.876,10.876,0,0,0-4.544,4.085,7.849,7.849,0,0,0-1.028,5.553,8.881,8.881,0,0,0,2.133,4.316A12.4,12.4,0,0,0,199.8-1.917a.262.262,0,0,1,.164.271c0,.924.008,1.849.012,2.773C199.98,1.585,199.979,2.042,199.979,2.55Z" fill="#1e88e5"/>
    <path id="Path_80268" data-name="Path 80268" d="M479.477,124.889c.03-.322.05-.645.093-.965a1.613,1.613,0,0,1,.451-.919q.977-1.019,1.944-2.048a2.394,2.394,0,0,0,.656-1.3,2.006,2.006,0,0,0-1.964-2.346,2.129,2.129,0,0,0-2.171,1.45c-.065.17-.13.341-.2.51a.226.226,0,0,1-.248.155c-.462-.04-.925-.069-1.385-.126-.248-.031-.31-.153-.263-.4a4,4,0,0,1,3.7-3.215,4.888,4.888,0,0,1,2.3.309,3.329,3.329,0,0,1,2.128,3.117,3.418,3.418,0,0,1-.6,2.207,10.086,10.086,0,0,1-.881.985c-.346.369-.688.744-1.056,1.09a2,2,0,0,0-.606,1.4c-.017.27-.032.54-.048.81-.014.246-.085.337-.329.347-.381.015-.764.015-1.146.006a.31.31,0,0,1-.348-.339c-.015-.24,0-.482,0-.723Z" transform="translate(-274.312 -132.851)" fill="#1e88e5"/>
    <path id="Path_80269" data-name="Path 80269" d="M562.076,445.981a1.03,1.03,0,0,1-1.037-1.007,1.065,1.065,0,0,1,1-1.058,1.1,1.1,0,0,1,1.079,1.026A1.067,1.067,0,0,1,562.076,445.981Z" transform="translate(-355.982 -449.509)" fill="#1e88e5"/>
  </g>
</svg>
