<svg xmlns="http://www.w3.org/2000/svg" width="37" height="37" viewBox="0 0 37 37">
  <g id="Group_43386" data-name="Group 43386" transform="translate(0.011 -0.216)">
    <g id="Rectangle_21361" data-name="Rectangle 21361" transform="translate(-0.011 0.216)" fill="none" stroke="#ababab" stroke-width="1">
      <rect width="37" height="37" rx="4" stroke="none"/>
      <rect x="0.5" y="0.5" width="36" height="36" rx="3.5" fill="none"/>
    </g>
    <g id="Group_43388" data-name="Group 43388" transform="translate(7.335 7.538)">
      <path id="Path_80245" data-name="Path 80245" d="M1259.783-665.946a.734.734,0,0,1-.466-.781c.012-1.051.021-2.1,0-3.153a3.186,3.186,0,0,1,3.3-3.3c2.475.031,4.952,0,7.427.013a.336.336,0,0,0,.384-.258c.516-1.4,1.047-2.792,1.568-4.19a1.1,1.1,0,0,0,.069-.373q.006-3.313,0-6.627a1.925,1.925,0,0,1,1.107-1.856,1.914,1.914,0,0,1,2.712,1.517c.018.228.027.456.027.685,0,2.173,0,4.346,0,6.52a3.493,3.493,0,0,1-.233,1.274c-.767,2.013-1.512,4.035-2.292,6.043a3,3,0,0,0-.2,1.161c.012.843-.009,1.687.01,2.531a.762.762,0,0,1-.44.8Z" transform="translate(-1254.28 687.915)" fill="#1e88e5"/>
      <path id="Path_80246" data-name="Path 80246" d="M1096.609-728.257c.332.072.672.119.995.221a3.356,3.356,0,0,1,2.259,1.975,3.346,3.346,0,0,1-.743,3.743,16.736,16.736,0,0,1-1.287,1.194,1.6,1.6,0,0,0-.539,1.277,4.062,4.062,0,0,1-.024.513.573.573,0,0,1-.585.518c-.435.007-.871.008-1.306,0a.56.56,0,0,1-.568-.532,5.437,5.437,0,0,1,.29-2.13,3.979,3.979,0,0,1,1.028-1.406c.3-.286.616-.554.912-.844a1.246,1.246,0,0,0,.348-1.51,1.349,1.349,0,0,0-1.384-.733,1.293,1.293,0,0,0-1.279,1.138c-.031.125-.05.253-.084.376a.594.594,0,0,1-.617.489q-.685.013-1.37,0a.591.591,0,0,1-.6-.7,3.775,3.775,0,0,1,3.474-3.555.437.437,0,0,0,.1-.037Z" transform="translate(-1092.049 728.257)" fill="#1e88e5"/>
      <path id="Path_80247" data-name="Path 80247" d="M1345.624-557.465a4.506,4.506,0,0,1-4.446-4.545,4.488,4.488,0,0,1,4.51-4.432,4.469,4.469,0,0,1,4.445,4.539A4.485,4.485,0,0,1,1345.624-557.465Z" transform="translate(-1333.677 571.314)" fill="#1e88e5"/>
      <path id="Path_80248" data-name="Path 80248" d="M1183.374-382.687c0-.214-.007-.429,0-.643a.564.564,0,0,1,.562-.582q.673-.02,1.347,0a.538.538,0,0,1,.549.523c.022.47.022.942,0,1.412a.536.536,0,0,1-.544.529c-.455.017-.912.018-1.367,0a.557.557,0,0,1-.546-.574C1183.366-382.244,1183.374-382.466,1183.374-382.687Z" transform="translate(-1180.621 394.289)" fill="#1e88e5"/>
    </g>
  </g>
</svg>
