<svg xmlns="http://www.w3.org/2000/svg" width="38" height="37" viewBox="0 0 38 37">
  <g id="Group_43390" data-name="Group 43390" transform="translate(0.39 -0.216)">
    <g id="Rectangle_21361" data-name="Rectangle 21361" transform="translate(-0.39 0.216)" fill="none" stroke="#ababab" stroke-width="1">
      <rect width="38" height="37" rx="4" stroke="none"/>
      <rect x="0.5" y="0.5" width="37" height="36" rx="3.5" fill="none"/>
    </g>
    <g id="Group_43385" data-name="Group 43385" transform="translate(7.501 7.504)">
      <path id="Path_80242" data-name="Path 80242" d="M1002.834,81.852c.069.415.12.834.211,1.245a7.78,7.78,0,0,0,6.674,5.955,7.678,7.678,0,0,0,5.808-1.687c.043-.034.088-.067.109-.082l1.923,1.876-1.094,1.087,4.877,4.868,3.106-3.108-4.816-4.816-1.052,1.062-1.974-1.928a7.868,7.868,0,0,0,1.381-7.567c-.069.061-.116.1-.158.141-.758.758-1.515,1.518-2.277,2.272a.463.463,0,0,0-.144.352,4.784,4.784,0,0,1-4.277,4.569,4.725,4.725,0,0,1-4.274-1.8c-.031-.038-.061-.078-.089-.118a.489.489,0,0,1-.031-.064q1.368-1.368,2.736-2.738a1.22,1.22,0,0,0,.11-.146l2.02,2.027,7.466-7.472.049.028v1.627h1.315v-.244q0-1.714,0-3.428c0-.084.007-.168.011-.252h-3.937v1.323h1.593l-6.528,6.53-1.957-1.989-1.757,1.757-1.75,1.752a4.739,4.739,0,0,1,1.082-4.917,4.683,4.683,0,0,1,2.509-1.355,4.767,4.767,0,0,1,3.876.919l2.114-2.111c-.042-.037-.093-.085-.148-.129a7.688,7.688,0,0,0-6.41-1.609,7.767,7.767,0,0,0-6.087,5.865c-.09.41-.141.83-.209,1.245Z" transform="translate(-1002.834 -73.513)" fill="#1e88e5"/>
      <path id="Path_80243" data-name="Path 80243" d="M1199.353,387.34v1.291h10.464V387.34Z" transform="translate(-1199.317 -369.593)" fill="#1e88e5"/>
      <path id="Path_80244" data-name="Path 80244" d="M1129.733,435.114h7.843v-1.286h-7.843Z" transform="translate(-1123.139 -413.452)" fill="#1e88e5"/>
    </g>
  </g>
</svg>
