<svg xmlns="http://www.w3.org/2000/svg" width="37" height="37" viewBox="0 0 37 37">
  <g id="Group_43387" data-name="Group 43387" transform="translate(-0.216 -0.216)">
    <g id="Rectangle_21361" data-name="Rectangle 21361" transform="translate(0.216 0.216)" fill="none" stroke="#ababab" stroke-width="1">
      <rect width="37" height="37" rx="4" stroke="none"/>
      <rect x="0.5" y="0.5" width="36" height="36" rx="3.5" fill="none"/>
    </g>
    <g id="Group_43389" data-name="Group 43389" transform="translate(7.926 7.504)">
      <path id="Path_80249" data-name="Path 80249" d="M355.31-424.777v-14.466a.452.452,0,0,0,.03-.078,1.865,1.865,0,0,1,1.863-1.607q3.276-.025,6.553,0A1.84,1.84,0,0,1,365.6-439.4c.1.523.149,1.059.215,1.59q.291,2.326.578,4.653.283,2.285.566,4.569.3,2.41.6,4.821c.037.3-.235.684-.482.684q-4.915,0-9.829,0a1.879,1.879,0,0,1-1.525-.731A2.322,2.322,0,0,1,355.31-424.777Zm6.63-6.549c.067.336.131.66.2.984s.13.663.2.993a.644.644,0,0,0,.752.542.642.642,0,0,0,.494-.785q-.62-3.1-1.245-6.209a.661.661,0,0,0-.733-.608q-.56,0-1.12,0a.662.662,0,0,0-.736.6q-.445,2.2-.885,4.408c-.122.607-.246,1.214-.364,1.822a.64.64,0,0,0,.494.767.632.632,0,0,0,.739-.475c.027-.094.042-.192.062-.289q.176-.876.351-1.755Z" transform="translate(-355.31 440.941)" fill="#1e88e5"/>
      <path id="Path_80250" data-name="Path 80250" d="M559.017-350.387h-9.686c.034-.044.066-.09.1-.132.863-.987,1.722-1.977,2.59-2.959a1.994,1.994,0,0,0,.534-1.572c-.093-.9-.216-1.79-.327-2.684q-.286-2.3-.573-4.591-.265-2.128-.531-4.255c-.066-.53-.131-1.059-.2-1.6.059-.006.1-.014.14-.014,2.565,0,5.131-.007,7.7.008a2.022,2.022,0,0,1,.852.2,1.891,1.891,0,0,1,1.089,1.813c.008,1.269,0,2.537,0,3.806q0,4.979,0,9.959a1.846,1.846,0,0,1-.792,1.639A4.928,4.928,0,0,1,559.017-350.387Zm-3.671-8.011c-.082.072-.144.129-.209.182-.4.33-.811.656-1.209.992a.626.626,0,0,0-.1.888.625.625,0,0,0,.871.11c.11-.076.213-.162.316-.247.4-.329.8-.66,1.216-1,.085.073.162.144.244.209.43.342.857.688,1.294,1.02a.622.622,0,0,0,.9-.1.63.63,0,0,0-.134-.9c-.241-.195-.492-.377-.735-.57s-.464-.381-.7-.577a8.266,8.266,0,0,0,1.5-2.678c.015-.048.111-.093.173-.1a.649.649,0,0,0,.659-.654.641.641,0,0,0-.69-.618c-.331,0-.662,0-.993,0h-.895c0-.208,0-.39,0-.572a.642.642,0,0,0-.635-.7.642.642,0,0,0-.633.7c0,.187,0,.374,0,.57h-.241c-.529,0-1.057,0-1.585,0a.644.644,0,0,0-.71.62.644.644,0,0,0,.683.648l.118.007A8.38,8.38,0,0,0,555.346-358.4Z" transform="translate(-539.053 372.049)" fill="#1e88e5"/>
      <path id="Path_80251" data-name="Path 80251" d="M498.87-79.674l-2.109,2.323c-1-.465-1.147-1.364-1.2-2.323Z" transform="translate(-488.135 98.812)" fill="#1e88e5"/>
      <path id="Path_80252" data-name="Path 80252" d="M451.407-328.648l.5-2.511h.278l.5,2.511Z" transform="translate(-446.316 336.975)" fill="#1e88e5"/>
      <path id="Path_80253" data-name="Path 80253" d="M660.012-235.525h2.1a6.345,6.345,0,0,1-1.067,1.825A6.407,6.407,0,0,1,660.012-235.525Z" transform="translate(-643.87 246.407)" fill="#1e88e5"/>
    </g>
  </g>
</svg>
